<svg width="467" height="468" viewBox="0 0 467 468" fill="none" xmlns="http://www.w3.org/2000/svg">
<path d="M338.029 293.687C322.181 273.625 300.096 258.452 275.65 250.696C273.964 250.191 271.772 249.854 270.761 251.371C270.086 252.214 270.424 253.394 270.592 254.574C278.01 288.63 304.311 317.965 337.523 328.755C307.345 317.122 283.911 289.473 277.504 257.777C319.99 273.119 352.359 312.907 358.934 357.584C320.158 353.2 284.08 329.26 265.029 295.205C250.867 269.916 246.652 239.907 251.878 211.415C253.902 199.107 257.611 187.137 263.174 176.01C280.708 141.112 315.606 115.654 354.214 109.585C349.83 154.43 319.147 195.735 277.504 212.932C282.562 181.068 304.816 152.407 334.32 139.426C301.782 151.733 276.661 182.248 270.929 216.641C270.761 217.652 270.592 218.833 271.266 219.844C272.278 221.193 274.47 220.856 276.156 220.181C300.264 211.415 321.676 195.23 336.68 174.493C351.685 153.756 360.283 128.299 360.958 102.673C313.415 107.393 269.918 140.606 252.721 185.114C249.518 193.207 247.326 201.636 245.978 210.234C241.089 235.86 243.617 262.835 254.07 286.607C273.29 330.272 318.135 361.461 365.847 364.159C363.655 338.702 353.877 313.75 338.029 293.687Z" fill="#0033A1" fill-opacity="0.05"/>
<path d="M129.141 173.313C144.989 193.375 167.074 208.548 191.52 216.304C193.206 216.809 195.398 217.147 196.409 215.629C197.084 214.786 196.746 213.606 196.578 212.426C189.16 178.37 162.859 149.035 129.647 138.246C159.825 149.878 183.259 177.528 189.665 209.223C147.349 193.881 114.811 154.093 108.404 109.416C147.18 113.8 183.259 137.74 202.31 171.795C216.472 197.084 220.686 227.094 215.46 255.586C213.437 267.893 209.728 279.863 204.164 290.99C186.631 325.889 151.732 351.346 113.125 357.415C117.508 312.57 148.192 271.265 189.834 254.068C184.776 285.932 162.522 314.593 133.019 327.574C165.557 315.267 190.677 284.752 196.409 250.359C196.578 249.348 196.746 248.168 196.072 247.156C195.06 245.807 192.869 246.144 191.183 246.819C167.074 255.586 145.663 271.77 130.658 292.507C115.654 313.244 107.055 338.702 106.381 364.328C153.924 359.607 197.421 326.394 214.617 281.886C217.82 273.794 220.012 265.364 221.361 256.766C226.25 231.14 223.721 204.165 213.268 180.394C194.049 136.728 149.203 105.539 101.492 102.841C103.515 128.299 113.125 153.25 129.141 173.313Z" fill="#0033A1" fill-opacity="0.05"/>
<path d="M339.546 252.888C356.743 252.72 372.084 245.133 382.706 233.163C371.916 221.361 356.405 214.112 339.209 214.281C322.013 214.449 306.671 222.036 296.049 234.006C306.839 245.639 322.35 253.057 339.546 252.888Z" fill="#0033A1" fill-opacity="0.05"/>
<path d="M127.965 252.888C145.161 252.72 160.503 245.133 171.124 233.163C160.335 221.361 144.824 214.112 127.628 214.281C110.431 214.449 95.0894 222.036 84.4681 234.006C95.258 245.639 110.768 253.057 127.965 252.888Z" fill="#0033A1" fill-opacity="0.05"/>
<path d="M252.886 338.87C252.717 321.674 245.131 306.332 233.161 295.71C221.359 306.5 214.11 322.011 214.278 339.207C214.447 356.404 222.034 371.746 234.004 382.367C245.636 371.577 253.055 356.066 252.886 338.87Z" fill="#0033A1" fill-opacity="0.05"/>
<path d="M252.886 127.961C252.717 110.765 245.131 95.4231 233.161 84.8018C221.359 95.5917 214.11 111.102 214.278 128.299C214.447 145.495 222.034 160.837 234.004 171.458C245.636 160.668 253.055 145.158 252.886 127.961Z" fill="#0033A1" fill-opacity="0.05"/>
<path d="M233.5 467.169C104.696 467.169 0 362.304 0 233.5C0 104.696 104.696 0 233.5 0C362.304 0 467 104.696 467 233.5C467 362.304 362.304 467.169 233.5 467.169ZM233.5 10.9585C110.765 10.9585 10.9585 110.765 10.9585 233.5C10.9585 356.235 110.765 456.21 233.669 456.21C356.572 456.21 456.379 356.404 456.379 233.5C456.379 110.596 356.235 10.9585 233.5 10.9585Z" fill="#0033A1" fill-opacity="0.05"/>
</svg>
