<svg width="18" height="17" viewBox="0 0 18 17" fill="none" xmlns="http://www.w3.org/2000/svg">
<path d="M6.87621 4.46038C6.87083 4.35264 6.86005 4.2503 6.86005 4.14256C6.86544 3.10833 6.92469 2.08487 7.32869 1.10989C7.46336 0.786687 7.63573 0.490422 7.89968 0.258796C8.31445 -0.0967219 8.7777 -0.0859486 9.17631 0.291116C9.4618 0.560448 9.63417 0.89442 9.77423 1.25532C10.0059 1.86402 10.119 2.49964 10.1459 3.14604C10.1675 3.58235 10.1513 4.02406 10.1513 4.46038C10.1675 4.46576 10.1836 4.47115 10.1998 4.47654C10.2375 4.43883 10.2806 4.40112 10.3183 4.36342C10.9647 3.69009 11.6542 3.07062 12.4837 2.62892C12.9039 2.40268 13.3456 2.23031 13.8358 2.23031C14.4121 2.23031 14.7676 2.58044 14.7892 3.15142C14.8053 3.54465 14.6922 3.91094 14.5306 4.26646C14.1859 5.02059 13.6742 5.6616 13.1086 6.25951C12.9254 6.44805 12.7423 6.63658 12.543 6.84127C12.5968 6.84666 12.6399 6.84666 12.683 6.84666C13.0385 6.84666 13.394 6.83589 13.7442 6.85743C14.4014 6.88975 15.0477 6.98671 15.6672 7.20218C15.9904 7.3153 16.2974 7.46074 16.5668 7.6762C16.8038 7.87012 16.9977 8.10174 17.0246 8.42494C17.057 8.77507 16.8846 9.03902 16.6368 9.25449C16.249 9.59923 15.7749 9.77699 15.2794 9.90627C14.5199 10.1056 13.7442 10.1594 12.9577 10.1541C12.8231 10.1541 12.6938 10.1541 12.516 10.1541C12.5914 10.2241 12.6399 10.2726 12.6884 10.3157C13.3456 10.9459 13.9489 11.6192 14.3852 12.4272C14.6384 12.8905 14.8269 13.3753 14.7892 13.9247C14.7569 14.3933 14.4337 14.7273 13.965 14.7596C13.394 14.8027 12.8931 14.598 12.4083 14.3287C11.6057 13.887 10.9324 13.2783 10.3075 12.6211C10.2752 12.5888 10.2483 12.5565 10.189 12.4972C10.1836 12.5673 10.1836 12.6104 10.1782 12.6588C10.1513 13.2406 10.1513 13.8224 10.092 14.4041C10.0274 15.0451 9.87657 15.6754 9.53722 16.241C9.4241 16.4295 9.27866 16.6126 9.11706 16.7581C8.73461 17.0921 8.28213 17.0759 7.89968 16.7365C7.6088 16.478 7.42565 16.144 7.2856 15.7831C7.06475 15.2175 6.94624 14.625 6.90853 14.0163C6.8816 13.5584 6.8816 13.0952 6.87083 12.6319C6.87083 12.5996 6.86544 12.5619 6.86005 12.4972C6.80619 12.5511 6.76848 12.5888 6.73078 12.6211C6.12747 13.2514 5.48107 13.8331 4.72156 14.2748C4.28524 14.528 3.82738 14.7327 3.31026 14.7596C3.19714 14.765 3.07325 14.765 2.96013 14.7381C2.51304 14.6465 2.24909 14.3179 2.23832 13.8439C2.22754 13.386 2.37298 12.9713 2.57229 12.5727C2.8901 11.937 3.32103 11.3822 3.80044 10.8651C3.98898 10.6604 4.18828 10.4665 4.38759 10.2726C4.41991 10.2402 4.463 10.2295 4.50071 10.2025C4.48993 10.1864 4.47916 10.1648 4.46839 10.1487C4.40375 10.1487 4.33911 10.1487 4.27447 10.1487C3.46647 10.1648 2.65848 10.1271 1.87203 9.9332C1.38184 9.8147 0.907817 9.64771 0.503819 9.33529C0.396086 9.2491 0.29374 9.15214 0.207554 9.04441C-0.077938 8.67273 -0.0671647 8.27412 0.229101 7.91321C0.525366 7.54692 0.93475 7.353 1.36568 7.20218C1.99053 6.98132 2.64232 6.88436 3.30487 6.85204C3.655 6.83588 4.00514 6.84666 4.35527 6.84127C4.39297 6.84127 4.43068 6.83589 4.50609 6.83589C4.45223 6.78202 4.42529 6.7497 4.39297 6.71738C3.76274 6.11407 3.18098 5.46768 2.73389 4.71355C2.49688 4.30416 2.30834 3.87323 2.24909 3.39921C2.18445 2.86593 2.3676 2.37575 2.92242 2.26801C3.13789 2.22492 3.36951 2.23031 3.58498 2.2734C4.23137 2.39191 4.78081 2.72588 5.30332 3.10294C5.82043 3.47462 6.28368 3.90555 6.71462 4.36342C6.75232 4.40112 6.77925 4.4496 6.80619 4.4927C6.83851 4.48192 6.85467 4.47115 6.87621 4.46038Z" fill="#1F4B98"/>
</svg>
