<svg width="149" height="57" viewBox="0 0 149 57" fill="none" xmlns="http://www.w3.org/2000/svg">
<path d="M1.88027 41.552H1.81468C1.81468 41.1361 1.66163 40.7858 1.35554 40.5012C1.04945 40.2166 0.699634 40.0633 0.284226 40.0633H0.0218636L0 39.8444H1.88027V41.552ZM1.88027 54.6656V56.3951H0V56.1543H0.30609C0.721498 56.1543 1.07132 56.001 1.35554 55.7164C1.63977 55.4318 1.79281 55.0815 1.81468 54.6656H1.88027ZM3.34513 39.8444V56.3951H1.81468V39.8444H3.34513ZM9.72929 39.8444V40.5669H3.27954V39.8444H9.72929ZM8.7017 47.8789V48.5795H3.27954V47.8789H8.7017ZM9.72929 55.6507V56.3732H3.27954V55.6507H9.72929ZM11.1723 52.542L9.79488 56.3732H5.8813L6.73398 55.6507C7.5648 55.6507 8.24257 55.5194 8.76729 55.2567C9.29202 54.994 9.72929 54.6218 10.0572 54.1621C10.3852 53.6804 10.6694 53.155 10.9318 52.5639H11.1723V52.542ZM9.72929 39.4066V40.0852L6.8433 39.8225C7.19312 39.8225 7.5648 39.8006 7.93648 39.7568C8.33002 39.7131 8.67984 39.6474 9.00779 39.5817C9.33575 39.5379 9.57624 39.4722 9.72929 39.4066ZM8.7017 46.3683V47.9227H7.3243V47.8789C7.63039 47.857 7.91461 47.7476 8.13325 47.5068C8.35188 47.2878 8.4612 47.0032 8.4612 46.6967V46.3683H8.7017ZM8.7017 48.5357V50.0901H8.4612V49.7398C8.4612 49.4333 8.35188 49.1487 8.13325 48.9298C7.91461 48.7108 7.65225 48.5795 7.3243 48.5795V48.5357H8.7017ZM9.72929 40.5012V42.3839H9.48879V41.968C9.48879 41.5958 9.35761 41.2674 9.09525 40.9828C8.83288 40.6982 8.50493 40.5669 8.11139 40.545V40.5012H9.72929Z" fill="#0033A1"/>
<path d="M15.2611 41.5521H15.1955C15.1737 41.1361 15.0206 40.7859 14.7364 40.5012C14.4522 40.2166 14.1024 40.0634 13.6869 40.0634H13.3809V39.8226H15.2611V41.5521ZM15.2611 54.6657V56.3952H13.3809V56.1543H13.6869C14.1024 56.1543 14.4522 56.0011 14.7364 55.7165C15.0206 55.4319 15.1737 55.0816 15.1955 54.6657H15.2611ZM16.726 39.8445V56.3952H15.1955V39.8445H16.726ZM16.6604 41.5521V39.8226H18.5407V40.0634C18.5188 40.0634 18.4313 40.0634 18.2346 40.0634C17.8192 40.0634 17.4693 40.2166 17.1851 40.5012C16.9009 40.7859 16.7478 41.1361 16.726 41.5521H16.6604ZM23.1101 55.6508V56.3733H16.6604V55.6508H23.1101ZM24.5531 52.5421L23.1757 56.3733H19.2622L20.1148 55.6508C20.9457 55.6508 21.6234 55.5195 22.1482 55.2567C22.6729 54.994 23.1101 54.6219 23.4381 54.1621C23.7661 53.6805 24.0503 53.1551 24.3126 52.564H24.5531V52.5421Z" fill="#0033A1"/>
<path d="M28.6196 54.6655C28.5103 54.972 28.4884 55.2566 28.5759 55.4755C28.6633 55.6944 28.7945 55.8696 28.9694 55.979C29.1443 56.0885 29.3411 56.1542 29.516 56.1542H29.7346V56.395H24.9902V56.1542H25.2089C25.5806 56.1542 25.9522 56.0447 26.3239 55.8039C26.7175 55.585 27.0235 55.1909 27.2859 54.6655H28.6196ZM33.7138 39.5159L33.9324 41.1797L27.9855 56.3074H26.5644L32.5988 41.946C32.7737 41.5519 32.9267 41.2235 33.036 40.9389C33.1453 40.6543 33.2547 40.3697 33.3421 40.107C33.4296 39.8443 33.4733 39.6473 33.4733 39.5159H33.7138ZM37.0371 49.9367V50.6373H29.6472V49.9367H37.0371ZM33.7138 39.5159L40.7101 56.2417H38.6987L33.2328 41.7489L33.7138 39.5159ZM38.0865 54.6655H40.0324C40.2729 55.1909 40.579 55.585 40.9725 55.8039C41.366 56.0228 41.7377 56.1542 42.1094 56.1542H42.3062V56.395H36.9933V56.1542H37.212C37.5181 56.1542 37.7804 56.0228 38.0209 55.7601C38.2396 55.4974 38.2614 55.1252 38.0865 54.6655Z" fill="#0033A1"/>
<path d="M51.2482 41.5521H51.1608C51.1608 41.1361 51.0077 40.7859 50.7016 40.5012C50.3955 40.2166 50.0457 40.0634 49.6303 40.0634H49.3461L49.3242 39.8226H51.2045V41.5521H51.2482ZM51.2482 54.6657V56.3952H49.3679V56.1543H49.674C50.0894 56.1543 50.4393 56.0011 50.7235 55.7165C51.0077 55.4319 51.1608 55.0816 51.1826 54.6657H51.2482ZM52.7131 39.8445V56.3952H51.1826V39.8445H52.7131ZM55.5116 39.8445C56.5173 39.8445 57.3919 40.0196 58.1134 40.3918C58.8349 40.764 59.4033 41.2675 59.7969 41.968C60.1904 42.6467 60.3872 43.4786 60.3872 44.42C60.3872 45.1424 60.256 45.7992 59.9718 46.3684C59.6875 46.9376 59.3159 47.4193 58.8349 47.8133C58.3539 48.2074 57.8291 48.492 57.2388 48.689C56.6485 48.8861 56.0145 48.9517 55.3804 48.9079C54.7464 48.8642 54.1342 48.689 53.522 48.3606V48.1198C54.0467 48.2074 54.5277 48.2293 54.9432 48.2074C55.3586 48.1855 55.7958 48.0979 56.255 47.9447C56.7141 47.7914 57.1514 47.5287 57.5449 47.1565C57.9385 46.7844 58.2446 46.259 58.4632 45.5803C58.5069 45.4052 58.5506 45.1862 58.5725 44.9235C58.5944 44.6608 58.6162 44.3981 58.5944 44.1573C58.5725 43.0627 58.2883 42.187 57.7417 41.5302C57.1951 40.8734 56.408 40.545 55.4023 40.545H52.6256C52.5382 40.3042 52.4726 40.0634 52.3851 39.8445H55.5116ZM52.6256 54.6657H52.6912C52.7131 55.0816 52.8661 55.4319 53.1503 55.7165C53.4346 56.0011 53.7844 56.1543 54.1998 56.1543H54.5059V56.3952H52.6256V54.6657Z" fill="#0033A1"/>
<path d="M64.7377 41.5521H64.6721C64.6502 41.1361 64.4972 40.7859 64.213 40.5012C63.9287 40.2166 63.5789 40.0634 63.1635 40.0634H62.8574V39.8226H64.7377V41.5521ZM64.7377 54.6657V56.3952H62.8574V56.1543H63.1635C63.5789 56.1543 63.9287 56.0011 64.213 55.7165C64.4972 55.4319 64.6502 55.0816 64.6721 54.6657H64.7377ZM66.2025 39.8445V56.3952H64.6721V39.8445H66.2025ZM66.137 41.5521V39.8226H68.0172V40.0634C67.9954 40.0634 67.9079 40.0634 67.7111 40.0634C67.2957 40.0634 66.9459 40.2166 66.6617 40.5012C66.3775 40.7859 66.2244 41.1361 66.2025 41.5521H66.137ZM66.137 54.6657H66.2025C66.2244 55.0816 66.3775 55.4319 66.6617 55.7165C66.9459 56.0011 67.2957 56.1543 67.7111 56.1543C67.9079 56.1543 67.9954 56.1543 68.0172 56.1543V56.3952H66.137V54.6657Z" fill="#0033A1"/>
<path d="M72.7185 41.5519H72.6529C72.6529 41.136 72.4999 40.7857 72.1938 40.5011C71.8877 40.2165 71.5379 40.0632 71.1225 40.0632H70.8383L70.8164 39.8224H72.6967V41.5519H72.7185ZM72.7185 54.6655V56.395H70.8383V56.1542H71.1444C71.5598 56.1542 71.9096 56.0009 72.1938 55.7163C72.478 55.4317 72.6311 55.0814 72.6529 54.6655H72.7185ZM74.1834 39.8443V56.395H72.6529V39.8443H74.1834ZM80.5457 39.8443V40.5668H74.1178V39.8443H80.5457ZM79.54 47.8788V48.5794H74.1178V47.8788H79.54ZM80.5457 55.6506V56.3731H74.1178V55.6506H80.5457ZM81.9887 52.5419L80.6113 56.3731H76.6977L77.5504 55.6506C78.3812 55.6506 79.059 55.5193 79.5837 55.2566C80.1084 54.9939 80.5457 54.6217 80.8736 54.162C81.2016 53.6803 81.4858 53.1549 81.7482 52.5638H81.9887V52.5419ZM80.5457 39.4065V40.0851L77.6597 39.8224C78.0095 39.8224 78.3812 39.8005 78.7529 39.7567C79.1464 39.713 79.4962 39.6473 79.8242 39.5816C80.174 39.5378 80.4145 39.4721 80.5457 39.4065ZM79.54 46.3683V47.9226H78.1626V47.8788C78.4687 47.8569 78.7529 47.7475 78.9715 47.5067C79.1902 47.2877 79.2995 47.0031 79.2995 46.6966V46.3683H79.54ZM79.54 48.5356V50.09H79.2995V49.7397C79.2995 49.4332 79.1902 49.1486 78.9715 48.9297C78.7529 48.7107 78.4905 48.5794 78.1626 48.5794V48.5356H79.54ZM80.5457 40.5011V42.3838H80.3052V41.9679C80.3052 41.5957 80.174 41.2673 79.9117 40.9827C79.6493 40.6981 79.3213 40.5668 78.9278 40.5449V40.5011H80.5457Z" fill="#0033A1"/>
<path d="M86.099 41.5521H86.0334C86.0116 41.1361 85.8585 40.7859 85.5743 40.5012C85.2901 40.2166 84.9402 40.0634 84.5248 40.0634H84.2188V39.8226H86.099V41.5521ZM86.099 54.6657V56.3952H84.2188V56.1543H84.5248C84.9402 56.1543 85.2901 56.0011 85.5743 55.7165C85.8585 55.4319 86.0116 55.0816 86.0334 54.6657H86.099ZM87.5639 39.8445V56.3952H86.0334V39.8445H87.5639ZM87.4983 41.5521V39.8226H89.3785V40.0634C89.3567 40.0634 89.2692 40.0634 89.0725 40.0634C88.6571 40.0634 88.3072 40.2166 88.023 40.5012C87.7388 40.7859 87.5857 41.1361 87.5639 41.5521H87.4983ZM93.9262 55.6508V56.3733H87.4764V55.6508H93.9262ZM95.3692 52.5421L93.9918 56.3733H90.0782L90.9309 55.6508C91.7617 55.6508 92.4395 55.5195 92.9642 55.2567C93.4889 54.994 93.9262 54.6219 94.2541 54.1621C94.5821 53.6805 94.8663 53.1551 95.1287 52.564H95.3692V52.5421Z" fill="#0033A1"/>
<path d="M105.273 41.5521H105.208C105.208 41.1361 105.055 40.7859 104.749 40.5012C104.442 40.2166 104.093 40.0634 103.677 40.0634H103.393L103.371 39.8226H105.251V41.5521H105.273ZM105.273 54.6657V56.3952H103.393V56.1543H103.699C104.114 56.1543 104.464 56.0011 104.749 55.7165C105.033 55.4319 105.186 55.0816 105.208 54.6657H105.273ZM106.738 39.8445V56.3952H105.208V39.8445H106.738ZM109.537 39.8445C110.542 39.8445 111.417 40.0196 112.138 40.3918C112.86 40.764 113.428 41.2675 113.822 41.968C114.215 42.6467 114.412 43.4786 114.412 44.42C114.412 45.1424 114.281 45.7992 113.997 46.3684C113.713 46.9376 113.341 47.4193 112.86 47.8133C112.379 48.2074 111.854 48.492 111.264 48.689C110.674 48.8861 110.039 48.9517 109.405 48.9079C108.771 48.8642 108.159 48.689 107.547 48.3606V48.1198C108.072 48.2074 108.553 48.2293 108.968 48.2074C109.384 48.1855 109.821 48.0979 110.28 47.9447C110.739 47.7914 111.176 47.5287 111.57 47.1565C111.963 46.7844 112.27 46.259 112.488 45.5803C112.532 45.4052 112.576 45.1862 112.598 44.9235C112.619 44.6608 112.641 44.3981 112.619 44.1573C112.598 43.0627 112.313 42.187 111.767 41.5302C111.22 40.8734 110.433 40.545 109.427 40.545H106.651C106.563 40.3042 106.498 40.0634 106.41 39.8445H109.537ZM106.651 54.6657H106.716C106.738 55.0816 106.891 55.4319 107.175 55.7165C107.46 56.0011 107.809 56.1543 108.225 56.1543H108.531V56.3952H106.651V54.6657Z" fill="#0033A1"/>
<path d="M118.763 41.5521H118.697C118.676 41.1361 118.523 40.7859 118.238 40.5012C117.954 40.2166 117.604 40.0634 117.189 40.0634H116.883V39.8226H118.763V41.5521ZM118.763 54.6657V56.3952H116.883V56.1543H117.189C117.604 56.1543 117.954 56.0011 118.238 55.7165C118.523 55.4319 118.676 55.0816 118.697 54.6657H118.763ZM120.228 39.8445V56.3952H118.697V39.8445H120.228ZM123.245 39.8445C123.945 39.8445 124.601 39.9539 125.169 40.151C125.738 40.348 126.219 40.6545 126.612 41.0267C127.006 41.4207 127.312 41.8805 127.53 42.4278C127.749 42.9751 127.858 43.5881 127.858 44.2886C127.858 45.0549 127.683 45.7773 127.334 46.456C126.984 47.1565 126.503 47.7039 125.891 48.1417C125.278 48.5796 124.601 48.7985 123.857 48.7985C124.12 48.9079 124.426 49.1269 124.732 49.4771C125.038 49.8055 125.322 50.1339 125.563 50.4623C125.978 51.0753 126.372 51.6007 126.678 52.0386C127.006 52.4764 127.334 52.9143 127.662 53.3302C127.99 53.7462 128.274 54.0964 128.514 54.3373C128.82 54.6875 129.148 54.994 129.454 55.2567C129.76 55.5195 130.11 55.7384 130.482 55.8916C130.854 56.0449 131.269 56.1324 131.728 56.1324V56.3733H130.438C129.717 56.3733 129.083 56.2638 128.558 56.0449C128.033 55.8259 127.596 55.5632 127.224 55.2349C126.853 54.9065 126.547 54.6 126.306 54.2935C126.262 54.2278 126.131 54.0527 125.912 53.7462C125.694 53.4397 125.453 53.0894 125.147 52.6734C124.863 52.2575 124.579 51.8415 124.295 51.4256C124.01 51.0096 123.77 50.6593 123.573 50.3747C123.376 50.0901 123.245 49.915 123.223 49.8712C122.917 49.4771 122.589 49.105 122.239 48.7766C121.868 48.4482 121.474 48.2731 121.059 48.2731V48.0322C121.54 48.0541 121.955 48.0541 122.305 48.0322C122.72 48.0104 123.158 47.9447 123.661 47.8352C124.142 47.7257 124.601 47.5068 125.038 47.1565C125.453 46.8063 125.781 46.2809 126 45.5803C126.044 45.4052 126.087 45.1862 126.109 44.9235C126.131 44.6608 126.153 44.3981 126.131 44.1573C126.109 43.0846 125.847 42.2308 125.322 41.5959C124.797 40.961 124.098 40.6107 123.201 40.5669C122.764 40.545 122.305 40.5231 121.846 40.5231C121.387 40.5231 120.84 40.545 120.206 40.545C120.206 40.5231 120.184 40.4575 120.14 40.348C120.097 40.2385 120.031 40.0634 119.966 39.8226H123.245V39.8445ZM120.162 54.6657H120.228C120.228 55.0816 120.381 55.4319 120.687 55.7165C120.993 56.0011 121.343 56.1543 121.758 56.1543H122.043V56.3952H120.184V54.6657H120.162Z" fill="#0033A1"/>
<path d="M140.495 39.5159C142.178 39.5159 143.665 39.8662 144.933 40.5886C146.201 41.3111 147.207 42.3181 147.928 43.6098C148.65 44.9015 149 46.412 149 48.1196C149 49.8273 148.65 51.3378 147.928 52.6295C147.207 53.9211 146.223 54.9282 144.933 55.6506C143.665 56.3731 142.178 56.7234 140.495 56.7234C138.833 56.7234 137.346 56.3731 136.078 55.6506C134.81 54.9282 133.805 53.9211 133.083 52.6295C132.362 51.3378 132.012 49.8273 132.012 48.1196C132.012 46.412 132.362 44.9015 133.083 43.6098C133.805 42.3181 134.788 41.3111 136.078 40.5886C137.368 39.8662 138.833 39.5159 140.495 39.5159ZM140.495 56.0009C141.828 56.0009 143.009 55.6725 143.993 55.0158C144.999 54.359 145.764 53.4395 146.332 52.2573C146.901 51.0751 147.163 49.6959 147.163 48.1196C147.163 46.5434 146.879 45.1642 146.332 43.982C145.764 42.7998 144.999 41.8803 143.993 41.2235C142.987 40.5668 141.828 40.2384 140.495 40.2384C139.183 40.2384 138.002 40.5668 137.018 41.2235C136.013 41.8803 135.248 42.7998 134.679 43.982C134.111 45.1642 133.848 46.5434 133.848 48.1196C133.848 49.6959 134.132 51.0751 134.679 52.2573C135.248 53.4395 136.013 54.359 137.018 55.0158C138.024 55.6725 139.183 56.0009 140.495 56.0009Z" fill="#0033A1"/>
<path d="M81.1367 18.7396C80.1309 17.4698 78.7098 16.4847 77.1575 16.003C77.0482 15.9593 76.917 15.9592 76.8514 16.0468C76.8077 16.1125 76.8295 16.1782 76.8295 16.2439C77.2887 18.4112 78.9722 20.2721 81.0929 20.9726C79.1689 20.2283 77.6822 18.4769 77.2668 16.4628C79.956 17.426 82.0331 19.9656 82.4485 22.8116C79.9779 22.527 77.6822 21.0164 76.4797 18.8491C75.5833 17.229 75.2991 15.3244 75.6489 13.5073C75.7801 12.7192 76.0206 11.9529 76.3704 11.2524C77.4854 9.04124 79.7155 7.39931 82.1642 7.02714C81.88 9.87316 79.9342 12.5002 77.2668 13.5949C77.5948 11.5589 78.994 9.7418 80.8743 8.90989C78.7973 9.69802 77.2012 11.6464 76.8295 13.8357C76.8077 13.9014 76.8077 13.9889 76.8514 14.0327C76.917 14.1203 77.0482 14.0984 77.1575 14.0546C78.6879 13.5073 80.0435 12.4784 81.0055 11.1429C81.9675 9.82937 82.5141 8.20933 82.5578 6.5674C79.5406 6.87389 76.7639 8.97557 75.6708 11.8216C75.474 12.347 75.3209 12.8724 75.2335 13.4197C74.9274 15.0398 75.0804 16.7693 75.7364 18.2798C76.9607 21.0602 79.8248 23.0524 82.842 23.2275C82.7764 21.6075 82.1642 20.0093 81.1367 18.7396Z" fill="#0033A1"/>
<path d="M67.8659 11.0557C68.8716 12.3255 70.2928 13.3106 71.8451 13.7922C71.9544 13.836 72.0856 13.836 72.1512 13.7485C72.1949 13.6828 72.173 13.6171 72.173 13.5514C71.7139 11.3841 70.0304 9.52322 67.9096 8.82267C69.8336 9.56701 71.3203 11.3184 71.7357 13.3325C69.0465 12.3692 66.9695 9.82972 66.5541 6.9837C69.0247 7.2683 71.3203 8.77888 72.5228 10.9462C73.4192 12.5663 73.7035 14.4709 73.3537 16.288C73.2225 17.0761 72.982 17.8423 72.6322 18.5429C71.5171 20.754 69.287 22.396 66.8383 22.7681C67.1225 19.9002 69.0684 17.2731 71.7139 16.1785C71.3859 18.2145 69.9867 20.0316 68.1064 20.8635C70.1834 20.0754 71.7795 18.1269 72.1512 15.9377C72.173 15.872 72.173 15.7845 72.1293 15.7407C72.0637 15.6531 71.9325 15.675 71.8232 15.7188C70.2928 16.2661 68.9372 17.295 67.9752 18.6305C67.0132 19.9659 66.4666 21.5641 66.4229 23.206C69.4401 22.8995 72.2167 20.7978 73.3099 17.9518C73.5067 17.4264 73.6597 16.901 73.7472 16.3537C74.0533 14.7336 73.9002 13.0041 73.2443 11.4935C72.02 8.7132 69.1558 6.72099 66.1387 6.54585C66.2261 8.18778 66.8383 9.78593 67.8659 11.0557Z" fill="#0033A1"/>
<path d="M81.2454 16.1347C82.3386 16.1347 83.3225 15.6312 84.0002 14.8869C83.3225 14.1425 82.3167 13.6828 81.2236 13.6828C80.1304 13.6828 79.1465 14.1863 78.4688 14.9306C79.1684 15.675 80.1522 16.1347 81.2454 16.1347Z" fill="#0033A1"/>
<path d="M67.7767 16.1347C68.8699 16.1347 69.8537 15.6312 70.5315 14.8868C69.8537 14.1425 68.848 13.6827 67.7548 13.6827C66.6616 13.6827 65.6778 14.1863 65 14.9306C65.6996 15.6749 66.6835 16.1347 67.7767 16.1347Z" fill="#0033A1"/>
<path d="M75.7358 21.6078C75.7358 20.5132 75.233 19.5281 74.4896 18.8494C73.7462 19.5281 73.2871 20.5351 73.2871 21.6297C73.2871 22.7244 73.79 23.7095 74.5333 24.3882C75.2767 23.6876 75.7358 22.7025 75.7358 21.6078Z" fill="#0033A1"/>
<path d="M75.7358 8.16583C75.7358 7.0712 75.233 6.08604 74.4896 5.40738C73.7462 6.08604 73.2871 7.0931 73.2871 8.18772C73.2871 9.28234 73.79 10.2675 74.5333 10.9462C75.2767 10.2456 75.7358 9.26045 75.7358 8.16583Z" fill="#0033A1"/>
<path d="M74.4903 29.7737C66.2914 29.7737 59.623 23.0965 59.623 14.8869C59.623 6.67719 66.2914 0 74.4903 0C82.6891 0 89.3575 6.67719 89.3575 14.8869C89.3575 23.0965 82.6891 29.7737 74.4903 29.7737ZM74.4903 0.72245C66.685 0.72245 60.3445 7.07125 60.3445 14.9087C60.3445 22.7462 66.7068 29.095 74.5121 29.095C82.3174 29.095 88.6797 22.7243 88.6797 14.9087C88.6797 7.09315 82.3174 0.72245 74.4903 0.72245Z" fill="#0033A1"/>
</svg>
