<svg width="196" height="75" viewBox="0 0 196 75" fill="none" xmlns="http://www.w3.org/2000/svg">
<path d="M2.47338 54.6582H2.3871C2.3871 54.111 2.18578 53.6502 1.78313 53.2758C1.38049 52.9015 0.920327 52.6999 0.373883 52.6999H0.0287602L0 52.4119H2.47338V54.6582ZM2.47338 71.9083V74.1833H0V73.8665H0.402643C0.949087 73.8665 1.40925 73.6649 1.78313 73.2906C2.15702 72.9162 2.35834 72.4554 2.3871 71.9083H2.47338ZM4.40031 52.4119V74.1833H2.3871V52.4119H4.40031ZM12.7983 52.4119V53.3622H4.31403V52.4119H12.7983ZM11.4466 62.9808V63.9024H4.31403V62.9808H11.4466ZM12.7983 73.2042V74.1545H4.31403V73.2042H12.7983ZM14.6965 69.1148L12.8846 74.1545H7.7365L8.85814 73.2042C9.95103 73.2042 10.8426 73.0314 11.5328 72.6858C12.2231 72.3402 12.7983 71.8507 13.2297 71.2459C13.6611 70.6123 14.035 69.9212 14.3801 69.1436H14.6965V69.1148ZM12.7983 51.8359V52.7287L9.00195 52.3831C9.46211 52.3831 9.95103 52.3543 10.44 52.2967C10.9576 52.2391 11.4178 52.1527 11.8492 52.0663C12.2806 52.0087 12.597 51.9223 12.7983 51.8359ZM11.4466 60.9938V63.0384H9.63467V62.9808C10.0373 62.952 10.4112 62.808 10.6988 62.4913C10.9864 62.2033 11.1302 61.8289 11.1302 61.4257V60.9938H11.4466ZM11.4466 63.8448V65.8894H11.1302V65.4287C11.1302 65.0255 10.9864 64.6511 10.6988 64.3631C10.4112 64.0752 10.0661 63.9024 9.63467 63.9024V63.8448H11.4466ZM12.7983 53.2758V55.7525H12.4819V55.2053C12.4819 54.7158 12.3094 54.2838 11.9642 53.9094C11.6191 53.535 11.1877 53.3622 10.67 53.3334V53.2758H12.7983Z" fill="white"/>
<path d="M20.073 54.6579H19.9867C19.9579 54.1107 19.7566 53.6499 19.3827 53.2756C19.0089 52.9012 18.5487 52.6996 18.0023 52.6996H17.5996V52.3828H20.073V54.6579ZM20.073 71.908V74.183H17.5996V73.8662H18.0023C18.5487 73.8662 19.0089 73.6647 19.3827 73.2903C19.7566 72.9159 19.9579 72.4551 19.9867 71.908H20.073ZM21.9999 52.4116V74.183H19.9867V52.4116H21.9999ZM21.9136 54.6579V52.3828H24.387V52.6996C24.3583 52.6996 24.2432 52.6996 23.9844 52.6996C23.4379 52.6996 22.9778 52.9012 22.6039 53.2756C22.23 53.6499 22.0287 54.1107 21.9999 54.6579H21.9136ZM30.3979 73.2039V74.1542H21.9136V73.2039H30.3979ZM32.2961 69.1145L30.4842 74.1542H25.3361L26.4578 73.2039C27.5506 73.2039 28.4422 73.0311 29.1325 72.6855C29.8227 72.3399 30.3979 71.8504 30.8293 71.2456C31.2607 70.6121 31.6346 69.9209 31.9797 69.1433H32.2961V69.1145Z" fill="white"/>
<path d="M37.6472 71.9078C37.5034 72.311 37.4747 72.6854 37.5897 72.9734C37.7048 73.2613 37.8773 73.4917 38.1074 73.6357C38.3375 73.7797 38.5963 73.8661 38.8264 73.8661H39.114V74.1829H32.873V73.8661H33.1606C33.6496 73.8661 34.1385 73.7221 34.6274 73.4053C35.1451 73.1174 35.5477 72.599 35.8929 71.9078H37.6472ZM44.3484 51.9795L44.636 54.1682L36.8132 74.0677H34.9438L42.8816 55.1761C43.1117 54.6577 43.313 54.2257 43.4568 53.8514C43.6006 53.477 43.7444 53.1026 43.8594 52.757C43.9745 52.4115 44.032 52.1523 44.032 51.9795H44.3484ZM48.7199 65.6874V66.609H38.999V65.6874H48.7199ZM44.3484 51.9795L53.5516 73.9813H50.9057L43.7156 54.9169L44.3484 51.9795ZM50.1004 71.9078H52.6601C52.9764 72.599 53.3791 73.1174 53.8968 73.4053C54.4144 73.6933 54.9034 73.8661 55.3923 73.8661H55.6511V74.1829H48.6624V73.8661H48.95C49.3526 73.8661 49.6978 73.6933 50.0141 73.3477C50.3017 73.0022 50.3305 72.5126 50.1004 71.9078Z" fill="white"/>
<path d="M67.4137 54.6579H67.2987C67.2987 54.1107 67.0973 53.6499 66.6947 53.2756C66.2921 52.9012 65.8319 52.6996 65.2855 52.6996H64.9116L64.8828 52.3828H67.3562V54.6579H67.4137ZM67.4137 71.908V74.183H64.9403V73.8662H65.343C65.8894 73.8662 66.3496 73.6647 66.7235 73.2903C67.0973 72.9159 67.2987 72.4551 67.3274 71.908H67.4137ZM69.3406 52.4116V74.183H67.3274V52.4116H69.3406ZM73.0219 52.4116C74.3449 52.4116 75.4953 52.642 76.4444 53.1316C77.3935 53.6211 78.1413 54.2835 78.659 55.205C79.1766 56.0978 79.4355 57.1921 79.4355 58.4304C79.4355 59.3808 79.2629 60.2447 78.889 60.9935C78.5151 61.7422 78.0262 62.3758 77.3935 62.8941C76.7608 63.4125 76.0705 63.7869 75.294 64.0461C74.5175 64.3053 73.6834 64.3916 72.8494 64.3341C72.0153 64.2765 71.2101 64.0461 70.4048 63.6141V63.2973C71.095 63.4125 71.7277 63.4413 72.2742 63.4125C72.8206 63.3837 73.3958 63.2685 73.9998 63.0669C74.6038 62.8653 75.179 62.5198 75.6967 62.0302C76.2143 61.5406 76.617 60.8495 76.9046 59.9567C76.9621 59.7263 77.0196 59.4384 77.0484 59.0928C77.0771 58.7472 77.1059 58.4016 77.0771 58.0849C77.0484 56.6449 76.6745 55.493 75.9555 54.6291C75.2365 53.7651 74.2011 53.3332 72.8781 53.3332H69.2256C69.1106 53.0164 69.0243 52.6996 68.9092 52.4116H73.0219ZM69.2256 71.908H69.3119C69.3406 72.4551 69.542 72.9159 69.9158 73.2903C70.2897 73.6647 70.7499 73.8662 71.2963 73.8662H71.699V74.183H69.2256V71.908Z" fill="white"/>
<path d="M85.1589 54.6579H85.0726C85.0439 54.1107 84.8426 53.6499 84.4687 53.2756C84.0948 52.9012 83.6346 52.6996 83.0882 52.6996H82.6855V52.3828H85.1589V54.6579ZM85.1589 71.908V74.183H82.6855V73.8662H83.0882C83.6346 73.8662 84.0948 73.6647 84.4687 73.2903C84.8426 72.9159 85.0439 72.4551 85.0726 71.908H85.1589ZM87.0859 52.4116V74.183H85.0726V52.4116H87.0859ZM86.9996 54.6579V52.3828H89.473V52.6996C89.4442 52.6996 89.3292 52.6996 89.0703 52.6996C88.5239 52.6996 88.0637 52.9012 87.6898 53.2756C87.3159 53.6499 87.1146 54.1107 87.0859 54.6579H86.9996ZM86.9996 71.908H87.0859C87.1146 72.4551 87.3159 72.9159 87.6898 73.2903C88.0637 73.6647 88.5239 73.8662 89.0703 73.8662C89.3292 73.8662 89.4442 73.8662 89.473 73.8662V74.183H86.9996V71.908Z" fill="white"/>
<path d="M95.6564 54.6582H95.5702C95.5702 54.111 95.3688 53.6502 94.9662 53.2758C94.5636 52.9015 94.1034 52.6999 93.5569 52.6999H93.1831L93.1543 52.3831H95.6277V54.6582H95.6564ZM95.6564 71.9083V74.1833H93.1831V73.8665H93.5857C94.1321 73.8665 94.5923 73.6649 94.9662 73.2906C95.3401 72.9162 95.5414 72.4554 95.5702 71.9083H95.6564ZM97.5834 52.4119V74.1833H95.5702V52.4119H97.5834ZM105.953 52.4119V53.3622H97.4971V52.4119H105.953ZM104.63 62.9808V63.9024H97.4971V62.9808H104.63ZM105.953 73.2042V74.1545H97.4971V73.2042H105.953ZM107.851 69.1148L106.039 74.1545H100.891L102.012 73.2042C103.105 73.2042 103.997 73.0314 104.687 72.6858C105.377 72.3402 105.953 71.8507 106.384 71.2459C106.815 70.6123 107.189 69.9212 107.534 69.1436H107.851V69.1148ZM105.953 51.8359V52.7287L102.156 52.3831C102.616 52.3831 103.105 52.3543 103.594 52.2967C104.112 52.2391 104.572 52.1527 105.004 52.0663C105.464 52.0087 105.78 51.9223 105.953 51.8359ZM104.63 60.9938V63.0384H102.818V62.9808C103.22 62.952 103.594 62.808 103.882 62.4913C104.169 62.2033 104.313 61.8289 104.313 61.4257V60.9938H104.63ZM104.63 63.8448V65.8894H104.313V65.4287C104.313 65.0255 104.169 64.6511 103.882 64.3631C103.594 64.0752 103.249 63.9024 102.818 63.9024V63.8448H104.63ZM105.953 53.2758V55.7525H105.636V55.2053C105.636 54.7158 105.464 54.2838 105.119 53.9094C104.773 53.535 104.342 53.3622 103.824 53.3334V53.2758H105.953Z" fill="white"/>
<path d="M113.259 54.6579H113.172C113.143 54.1107 112.942 53.6499 112.568 53.2756C112.194 52.9012 111.734 52.6996 111.188 52.6996H110.785V52.3828H113.259V54.6579ZM113.259 71.908V74.183H110.785V73.8662H111.188C111.734 73.8662 112.194 73.6647 112.568 73.2903C112.942 72.9159 113.143 72.4551 113.172 71.908H113.259ZM115.185 52.4116V74.183H113.172V52.4116H115.185ZM115.099 54.6579V52.3828H117.573V52.6996C117.544 52.6996 117.429 52.6996 117.17 52.6996C116.623 52.6996 116.163 52.9012 115.789 53.2756C115.416 53.6499 115.214 54.1107 115.185 54.6579H115.099ZM123.555 73.2039V74.1542H115.07V73.2039H123.555ZM125.453 69.1145L123.641 74.1542H118.493L119.615 73.2039C120.707 73.2039 121.599 73.0311 122.289 72.6855C122.979 72.3399 123.555 71.8504 123.986 71.2456C124.417 70.6121 124.791 69.9209 125.137 69.1433H125.453V69.1145Z" fill="white"/>
<path d="M138.479 54.6579H138.392C138.392 54.1107 138.191 53.6499 137.788 53.2756C137.386 52.9012 136.926 52.6996 136.379 52.6996H136.005L135.977 52.3828H138.45V54.6579H138.479ZM138.479 71.908V74.183H136.005V73.8662H136.408C136.954 73.8662 137.415 73.6647 137.788 73.2903C138.162 72.9159 138.364 72.4551 138.392 71.908H138.479ZM140.406 52.4116V74.183H138.392V52.4116H140.406ZM144.087 52.4116C145.41 52.4116 146.56 52.642 147.509 53.1316C148.459 53.6211 149.206 54.2835 149.724 55.205C150.242 56.0978 150.5 57.1921 150.5 58.4304C150.5 59.3808 150.328 60.2447 149.954 60.9935C149.58 61.7422 149.091 62.3758 148.459 62.8941C147.826 63.4125 147.136 63.7869 146.359 64.0461C145.582 64.3053 144.748 64.3916 143.914 64.3341C143.08 64.2765 142.275 64.0461 141.47 63.6141V63.2973C142.16 63.4125 142.793 63.4413 143.339 63.4125C143.886 63.3837 144.461 63.2685 145.065 63.0669C145.669 62.8653 146.244 62.5198 146.762 62.0302C147.279 61.5406 147.682 60.8495 147.97 59.9567C148.027 59.7263 148.085 59.4384 148.113 59.0928C148.142 58.7472 148.171 58.4016 148.142 58.0849C148.113 56.6449 147.739 55.493 147.02 54.6291C146.301 53.7651 145.266 53.3332 143.943 53.3332H140.291C140.176 53.0164 140.089 52.6996 139.974 52.4116H144.087ZM140.291 71.908H140.377C140.406 72.4551 140.607 72.9159 140.981 73.2903C141.355 73.6647 141.815 73.8662 142.361 73.8662H142.764V74.183H140.291V71.908Z" fill="white"/>
<path d="M156.225 54.6579H156.139C156.11 54.1107 155.909 53.6499 155.535 53.2756C155.161 52.9012 154.701 52.6996 154.155 52.6996H153.752V52.3828H156.225V54.6579ZM156.225 71.908V74.183H153.752V73.8662H154.155C154.701 73.8662 155.161 73.6647 155.535 73.2903C155.909 72.9159 156.11 72.4551 156.139 71.908H156.225ZM158.152 52.4116V74.183H156.139V52.4116H158.152ZM162.121 52.4116C163.042 52.4116 163.904 52.5556 164.652 52.8148C165.4 53.074 166.033 53.4771 166.55 53.9667C167.068 54.4851 167.471 55.0898 167.758 55.8098C168.046 56.5297 168.19 57.3361 168.19 58.2576C168.19 59.2656 167.96 60.2159 167.499 61.1087C167.039 62.0302 166.406 62.7502 165.601 63.3261C164.796 63.9021 163.904 64.1901 162.926 64.1901C163.272 64.3341 163.674 64.622 164.077 65.0828C164.48 65.5148 164.853 65.9467 165.17 66.3787C165.716 67.1851 166.234 67.8762 166.637 68.4522C167.068 69.0282 167.499 69.6041 167.931 70.1513C168.362 70.6984 168.736 71.1592 169.052 71.476C169.455 71.9368 169.886 72.3399 170.289 72.6855C170.692 73.0311 171.152 73.3191 171.641 73.5207C172.13 73.7223 172.676 73.8374 173.28 73.8374V74.1542H171.583C170.634 74.1542 169.8 74.0102 169.11 73.7223C168.42 73.4343 167.844 73.0887 167.356 72.6567C166.867 72.2247 166.464 71.8216 166.148 71.4184C166.09 71.332 165.918 71.1016 165.63 70.6984C165.342 70.2953 165.026 69.8345 164.623 69.2873C164.249 68.7402 163.876 68.193 163.502 67.6458C163.128 67.0987 162.811 66.6379 162.553 66.2635C162.294 65.8892 162.121 65.6588 162.092 65.6012C161.69 65.0828 161.258 64.5932 160.798 64.1613C160.309 63.7293 159.792 63.4989 159.245 63.4989V63.1821C159.878 63.2109 160.424 63.2109 160.885 63.1821C161.431 63.1533 162.006 63.0669 162.668 62.9229C163.3 62.7789 163.904 62.491 164.48 62.0302C165.026 61.5694 165.457 60.8783 165.745 59.9567C165.802 59.7263 165.86 59.4384 165.889 59.0928C165.918 58.7472 165.946 58.4016 165.918 58.0849C165.889 56.6737 165.544 55.5506 164.853 54.7155C164.163 53.8803 163.243 53.4195 162.064 53.3619C161.488 53.3332 160.884 53.3044 160.281 53.3044C159.677 53.3044 158.958 53.3332 158.124 53.3332C158.124 53.3044 158.095 53.218 158.037 53.074C157.98 52.93 157.893 52.6996 157.807 52.3828H162.121V52.4116ZM158.066 71.908H158.152C158.152 72.4551 158.354 72.9159 158.756 73.2903C159.159 73.6647 159.619 73.8662 160.165 73.8662H160.539V74.183H158.095V71.908H158.066Z" fill="white"/>
<path d="M184.813 51.9795C187.028 51.9795 188.984 52.4403 190.652 53.3906C192.32 54.3409 193.643 55.6657 194.592 57.3648C195.541 59.0638 196.001 61.0509 196.001 63.2972C196.001 65.5434 195.541 67.5305 194.592 69.2296C193.643 70.9287 192.348 72.2534 190.652 73.2038C188.984 74.1541 187.028 74.6149 184.813 74.6149C182.627 74.6149 180.672 74.1541 179.004 73.2038C177.336 72.2534 176.013 70.9287 175.064 69.2296C174.114 67.5305 173.654 65.5434 173.654 63.2972C173.654 61.0509 174.114 59.0638 175.064 57.3648C176.013 55.6657 177.307 54.3409 179.004 53.3906C180.701 52.4403 182.627 51.9795 184.813 51.9795ZM184.813 73.6645C186.568 73.6645 188.121 73.2325 189.415 72.3686C190.738 71.5047 191.744 70.2951 192.492 68.74C193.24 67.1849 193.585 65.3706 193.585 63.2972C193.585 61.2237 193.211 59.4094 192.492 57.8543C191.744 56.2992 190.738 55.0897 189.415 54.2258C188.092 53.3618 186.568 52.9298 184.813 52.9298C183.088 52.9298 181.535 53.3618 180.24 54.2258C178.917 55.0897 177.911 56.2992 177.163 57.8543C176.415 59.4094 176.07 61.2237 176.07 63.2972C176.07 65.3706 176.444 67.1849 177.163 68.74C177.911 70.2951 178.917 71.5047 180.24 72.3686C181.563 73.2325 183.088 73.6645 184.813 73.6645Z" fill="white"/>
<path d="M106.73 24.6514C105.407 22.9811 103.538 21.6852 101.496 21.0517C101.352 20.9941 101.179 20.9941 101.093 21.1093C101.036 21.1957 101.064 21.282 101.064 21.3684C101.668 24.2195 103.883 26.6673 106.673 27.5888C104.142 26.6097 102.186 24.3059 101.64 21.6564C105.177 22.9235 107.909 26.2641 108.456 30.0079C105.206 29.6335 102.186 27.6464 100.604 24.7954C99.425 22.6644 99.0511 20.1589 99.5113 17.7687C99.6839 16.7319 100 15.724 100.46 14.8025C101.927 11.8938 104.861 9.73398 108.082 9.24441C107.708 12.9882 105.148 16.444 101.64 17.8839C102.071 15.2056 103.912 12.8154 106.385 11.7211C103.653 12.7578 101.553 15.3208 101.064 18.2006C101.036 18.287 101.036 18.4022 101.093 18.4598C101.179 18.575 101.352 18.5462 101.496 18.4886C103.509 17.7687 105.292 16.4152 106.558 14.6585C107.823 12.9306 108.542 10.7995 108.6 8.63965C104.631 9.04282 100.978 11.8074 99.5401 15.5512C99.2812 16.2424 99.0799 16.9335 98.9649 17.6535C98.5622 19.7845 98.7635 22.0596 99.6263 24.0467C101.237 27.704 105.005 30.3247 108.973 30.5551C108.887 28.424 108.082 26.3217 106.73 24.6514Z" fill="white"/>
<path d="M89.2721 14.5438C90.595 16.214 92.4644 17.51 94.5064 18.1435C94.6502 18.2011 94.8228 18.2011 94.9091 18.0859C94.9666 17.9995 94.9378 17.9131 94.9378 17.8267C94.3339 14.9757 92.1193 12.5279 89.3296 11.6063C91.8605 12.5855 93.8162 14.8893 94.3626 17.5388C90.8251 16.2716 88.0929 12.9311 87.5464 9.18729C90.7963 9.56167 93.8162 11.5487 95.398 14.3998C96.5772 16.5308 96.951 19.0363 96.4909 21.4265C96.3183 22.4632 96.002 23.4712 95.5418 24.3927C94.075 27.3013 91.1415 29.4612 87.9203 29.9508C88.2942 26.1782 90.8539 22.7224 94.3339 21.2825C93.9025 23.9608 92.0618 26.351 89.5884 27.4453C92.3206 26.4086 94.4201 23.8456 94.9091 20.9657C94.9378 20.8793 94.9378 20.7642 94.8803 20.7066C94.794 20.5914 94.6215 20.6202 94.4777 20.6778C92.4644 21.3977 90.6813 22.7512 89.4159 24.5079C88.1504 26.2646 87.4314 28.3669 87.3739 30.5267C91.3428 30.1236 94.9953 27.3589 96.4333 23.6152C96.6922 22.924 96.8935 22.2329 97.0086 21.5129C97.4112 19.3818 97.2099 17.1068 96.3471 15.1197C94.7365 11.4623 90.9689 8.84171 87 8.61133C87.115 10.7712 87.9203 12.8735 89.2721 14.5438Z" fill="white"/>
<path d="M106.873 21.2234C108.311 21.2234 109.605 20.5611 110.497 19.5819C109.605 18.6028 108.283 17.998 106.844 17.998C105.406 17.998 104.112 18.6604 103.221 19.6395C104.141 20.6187 105.435 21.2234 106.873 21.2234Z" fill="white"/>
<path d="M89.1565 21.2234C90.5945 21.2234 91.8887 20.5611 92.7802 19.5819C91.8887 18.6028 90.5657 17.998 89.1277 17.998C87.6897 17.998 86.3955 18.6604 85.5039 19.6395C86.4242 20.6187 87.7184 21.2234 89.1565 21.2234Z" fill="white"/>
<path d="M99.6254 28.4245C99.6254 26.9846 98.964 25.6886 97.9861 24.7959C97.0083 25.6886 96.4043 27.0134 96.4043 28.4533C96.4043 29.8932 97.0658 31.1891 98.0436 32.0818C99.0215 31.1603 99.6254 29.8644 99.6254 28.4245Z" fill="white"/>
<path d="M99.6254 10.7419C99.6254 9.30194 98.964 8.00602 97.9861 7.11328C97.0083 8.00602 96.4043 9.33074 96.4043 10.7706C96.4043 12.2106 97.0658 13.5065 98.0436 14.3992C99.0215 13.4777 99.6254 12.1818 99.6254 10.7419Z" fill="white"/>
<path d="M97.9866 39.1655C87.2016 39.1655 78.4297 30.3821 78.4297 19.5828C78.4297 8.78344 87.2016 0 97.9866 0C108.772 0 117.544 8.78344 117.544 19.5828C117.544 30.3821 108.772 39.1655 97.9866 39.1655ZM97.9866 0.95034C87.7192 0.95034 79.3788 9.30181 79.3788 19.6116C79.3788 29.9213 87.748 38.2728 98.0154 38.2728C108.283 38.2728 116.652 29.8925 116.652 19.6116C116.652 9.33061 108.283 0.95034 97.9866 0.95034Z" fill="white"/>
</svg>
