<svg width="198" height="336" viewBox="0 0 198 336" fill="none" xmlns="http://www.w3.org/2000/svg">
<g opacity="0.11">
<path d="M18.8273 27.0954H18.478C18.478 25.3436 17.896 23.9421 16.6155 22.7742C15.3351 21.6064 13.9382 21.0224 12.1921 21.0224H11.028L10.9116 20.0881H18.8273V27.0954ZM18.8273 81.2852V88.4092H11.028V87.4749H12.3085C14.0546 87.4749 15.4515 86.891 16.6155 85.7231C17.7796 84.5552 18.478 83.037 18.478 81.4019H18.8273V81.2852ZM24.8804 19.9713V88.4092H18.5945V19.9713H24.8804ZM51.3049 19.9713V23.0078H24.6476V19.9713H51.3049ZM47.1142 53.256V56.1757H24.6476V53.256H47.1142ZM51.3049 85.4895V88.526H24.6476V85.4895H51.3049ZM57.2417 72.6428L51.5377 88.526H35.3571L38.8493 85.4895C42.3415 85.4895 45.1353 84.9056 47.2306 83.8545C49.4424 82.8034 51.1885 81.2852 52.5854 79.2998C53.9823 77.3144 55.1463 75.0954 56.194 72.6428H57.2417ZM51.3049 18.2195V21.0224L39.4314 19.9713C40.8282 19.9713 42.3415 19.8545 43.9712 19.621C45.6009 19.3874 46.9978 19.1538 48.3947 18.9202C49.6752 18.8034 50.7229 18.4531 51.3049 18.2195ZM47.1142 46.9494V53.3728H41.4103V53.1392C42.6908 53.0224 43.8548 52.5552 44.6697 51.6209C45.6009 50.6866 46.0666 49.5188 46.0666 48.2341V46.8326H47.1142V46.9494ZM47.1142 56.0589V62.4823H46.183V60.964C46.183 59.6793 45.7173 58.5114 44.7861 57.5771C43.8548 56.6428 42.8072 56.1757 41.5267 56.1757V56.0589H47.1142ZM51.3049 22.7742V30.5991H50.2572V28.8472C50.2572 27.329 49.6752 25.9275 48.6275 24.7596C47.5799 23.5918 46.183 23.0078 44.5533 23.0078V22.7742H51.3049Z" fill="#1F4B98"/>
<path d="M76.5638 27.0945H76.2145C76.0981 25.3427 75.5161 23.9413 74.352 22.7734C73.188 21.6055 71.6747 21.0216 70.045 21.0216H68.7645V20.0872H76.5638V27.0945ZM76.5638 81.2843V88.4084H68.7645V87.4741H70.045C71.7911 87.4741 73.188 86.8901 74.352 85.7223C75.5161 84.5544 76.2145 83.0361 76.2145 81.4011H76.5638V81.2843ZM82.6169 19.9705V88.4084H76.331V19.9705H82.6169ZM82.3841 27.0945V19.9705H90.1834V21.0216C90.067 21.0216 89.7178 21.0216 88.9029 21.0216C87.1568 21.0216 85.7599 21.6055 84.5959 22.7734C83.4318 23.9413 82.7334 25.4595 82.7334 27.0945H82.3841ZM109.041 85.4887V88.5252H82.3841V85.4887H109.041ZM114.978 72.642L109.274 88.5252H93.0936L96.5858 85.4887C100.078 85.4887 102.872 84.9047 104.967 83.8536C107.179 82.8026 108.925 81.2843 110.322 79.2989C111.719 77.3135 112.883 75.0945 113.93 72.642H114.978Z" fill="#1F4B98"/>
<path d="M134.186 81.2845C133.72 82.5692 133.72 83.7371 133.953 84.5546C134.302 85.4889 134.768 86.1896 135.582 86.6568C136.281 87.1239 137.096 87.3575 137.911 87.3575H138.842V88.2918H119.285V87.3575H120.217C121.73 87.3575 123.243 86.8903 124.873 85.956C126.503 85.0217 127.783 83.3867 128.831 81.1677H134.186V81.2845ZM155.255 18.5692L156.187 25.4597L131.741 88.175H125.921L150.832 28.7298C151.53 27.0947 152.112 25.6933 152.578 24.5254C153.044 23.3575 153.509 22.1896 153.858 21.1385C154.208 20.0874 154.44 19.2699 154.44 18.686H155.255V18.5692ZM168.991 61.7809V64.7006H138.493V61.7809H168.991ZM155.255 18.5692L184.124 87.9414H175.859L153.276 27.9122L155.255 18.5692ZM173.298 81.2845H181.33C182.262 83.5035 183.659 85.1385 185.288 86.0728C186.918 87.0071 188.431 87.4743 189.945 87.4743H190.759V88.4086H168.875V87.4743H169.806C171.087 87.4743 172.134 86.8903 173.066 85.8393C173.88 84.7882 174.113 83.2699 173.298 81.2845Z" fill="#1F4B98"/>
<path d="M8.00241 150.189H7.7696C7.7696 148.437 7.18756 147.036 5.90708 145.868C4.6266 144.7 3.22971 144.116 1.4836 144.116H0.319532L0.203125 143.065H8.00241V150.189ZM8.00241 204.379V211.503H0.203125V210.569H1.4836C3.22971 210.569 4.6266 209.985 5.79067 208.817C6.95475 207.649 7.65319 206.131 7.65319 204.496H8.00241V204.379ZM14.0556 143.065V211.503H7.7696V143.065H14.0556ZM25.6963 143.065C29.887 143.065 33.3792 143.766 36.4058 145.284C39.4324 146.802 41.7605 148.905 43.2738 151.824C44.9035 154.627 45.7184 158.014 45.7184 161.985C45.7184 165.021 45.1363 167.708 43.9723 170.043C42.8082 172.379 41.2949 174.481 39.316 176.116C37.337 177.751 35.1253 178.919 32.6808 179.737C30.2362 180.554 27.6752 180.905 24.9979 180.671C22.3205 180.437 19.7595 179.737 17.315 178.452V177.518C19.5267 177.868 21.5057 177.985 23.2518 177.868C24.9979 177.751 26.744 177.401 28.7229 176.817C30.5854 176.233 32.4479 175.065 34.0776 173.547C35.7073 172.029 36.9878 169.81 37.8027 167.007C38.0355 166.306 38.1519 165.372 38.2683 164.321C38.3847 163.27 38.3847 162.218 38.3847 161.167C38.2683 156.613 37.1042 152.992 34.8925 150.306C32.5643 147.62 29.4213 146.218 25.2307 146.218H13.7064C13.3571 145.284 13.0079 144.233 12.7751 143.299H25.6963V143.065ZM13.7064 204.379H14.0556C14.172 206.131 14.754 207.532 15.9181 208.7C17.0822 209.868 18.5955 210.452 20.2252 210.452H21.5057V211.386H13.7064V204.379Z" fill="#1F4B98"/>
<path d="M66.2079 150.189H65.8587C65.7423 148.437 65.1602 147.036 63.9962 145.868C62.8321 144.7 61.3188 144.116 59.6891 144.116H58.4086V143.182H66.2079V150.189ZM66.2079 204.379V211.503H58.4086V210.569H59.6891C61.4352 210.569 62.8321 209.985 63.9962 208.817C65.1602 207.649 65.8587 206.131 65.8587 204.496H66.2079V204.379ZM72.2611 143.065V211.503H65.9751V143.065H72.2611ZM72.0283 150.189V143.065H79.8275V144C79.7111 144 79.3619 144 78.5471 144C76.801 144 75.4041 144.583 74.24 145.751C73.0759 146.919 72.3775 148.437 72.3775 150.072H72.0283V150.189ZM72.0283 204.379H72.3775C72.4939 206.131 73.0759 207.532 74.24 208.7C75.4041 209.868 76.9174 210.452 78.5471 210.452C79.3619 210.452 79.7111 210.452 79.8275 210.452V211.386H72.0283V204.379Z" fill="#1F4B98"/>
<path d="M101.592 150.19H101.243C101.243 148.439 100.661 147.037 99.3802 145.869C98.0997 144.701 96.7028 144.117 94.9567 144.117H93.7926L93.6762 143.183H101.476V150.19H101.592ZM101.592 204.38V211.504H93.7926V210.57H95.0731C96.8192 210.57 98.2161 209.986 99.3802 208.818C100.544 207.65 101.243 206.132 101.243 204.497H101.592V204.38ZM107.645 143.066V211.504H101.359V143.066H107.645ZM133.953 143.066V146.103H107.412V143.066H133.953ZM129.762 176.351V179.271H107.412V176.351H129.762ZM133.953 208.468V211.504H107.412V208.468H133.953ZM139.89 195.738L134.186 211.621H118.005L121.498 208.585C124.99 208.585 127.784 208.001 129.879 206.95C132.091 205.898 133.837 204.38 135.234 202.395C136.631 200.409 137.795 198.19 138.842 195.738H139.89ZM133.953 141.315V144.117L122.08 143.066C123.476 143.066 124.99 142.95 126.619 142.716C128.249 142.482 129.646 142.249 131.043 142.015C132.44 141.782 133.371 141.548 133.953 141.315ZM129.762 170.044V176.468H124.059V176.351C125.339 176.234 126.503 175.767 127.318 174.833C128.249 173.898 128.715 172.731 128.715 171.446V170.044H129.762ZM129.762 179.037V185.461H128.831V183.942C128.831 182.658 128.366 181.49 127.434 180.555C126.503 179.621 125.455 179.154 124.175 179.154V178.92H129.762V179.037ZM133.953 145.753V153.577H133.022V151.826C133.022 150.307 132.44 148.906 131.392 147.738C130.345 146.57 128.948 145.986 127.318 145.986V145.753H133.953Z" fill="#1F4B98"/>
<path d="M159.331 150.189H158.982C158.865 148.437 158.283 147.036 157.119 145.868C155.955 144.7 154.442 144.116 152.812 144.116H151.532V143.182H159.331V150.189ZM159.331 204.379V211.503H151.532V210.569H152.812C154.558 210.569 155.955 209.985 157.119 208.817C158.283 207.649 158.982 206.131 158.982 204.496H159.331V204.379ZM165.384 143.065V211.503H159.098V143.065H165.384ZM165.151 150.189V143.065H172.951V144C172.834 144 172.485 144 171.67 144C169.924 144 168.527 144.583 167.363 145.751C166.199 146.919 165.501 148.437 165.501 150.072H165.151V150.189ZM191.692 208.467V211.503H165.035V208.467H191.692ZM197.629 195.737L191.925 211.62H175.744L179.237 208.583C182.729 208.583 185.523 207.999 187.618 206.948C189.83 205.897 191.576 204.379 192.973 202.394C194.37 200.408 195.534 198.189 196.581 195.737H197.629Z" fill="#1F4B98"/>
<path d="M8.5866 273.284H8.35379C8.35379 271.532 7.77175 270.131 6.49127 268.963C5.21079 267.795 3.8139 267.211 2.0678 267.211H0.903723L0.787315 266.277H8.5866V273.284ZM8.5866 327.474V334.598H0.787315V333.664H2.0678C3.8139 333.664 5.21079 333.08 6.37486 331.912C7.53894 330.744 8.23738 329.226 8.23738 327.591H8.5866V327.474ZM14.6398 266.043V334.481H8.35379V266.043H14.6398ZM26.2805 266.043C30.4712 266.043 33.9634 266.744 36.99 268.262C40.0166 269.78 42.3447 271.883 43.858 274.802C45.4877 277.605 46.3026 280.992 46.3026 284.963C46.3026 287.999 45.7205 290.685 44.5564 293.021C43.3924 295.357 41.8791 297.459 39.9002 299.094C37.9212 300.729 35.7095 301.897 33.2649 302.715C30.8204 303.532 28.2594 303.883 25.5821 303.649C22.9047 303.415 20.3437 302.715 17.8992 301.43V300.496C20.1109 300.846 22.0898 300.963 23.836 300.846C25.5821 300.729 27.3282 300.379 29.3071 299.795C31.1696 299.211 33.0321 298.043 34.6618 296.525C36.2915 295.007 37.572 292.788 38.3869 289.985C38.6197 289.284 38.7361 288.35 38.8525 287.299C38.9689 286.248 38.9689 285.196 38.9689 284.145C38.8525 279.591 37.6884 275.97 35.4767 273.284C33.1485 270.598 30.0055 269.196 25.8149 269.196H14.2906C13.9413 268.262 13.5921 267.211 13.3593 266.277H26.2805V266.043ZM14.2906 327.474H14.6398C14.7562 329.226 15.3382 330.627 16.5023 331.795C17.6664 332.963 19.1797 333.547 20.8094 333.547H22.0898V334.481H14.2906V327.474Z" fill="#1F4B98"/>
<path d="M66.7921 273.284H66.5593C66.4429 271.532 65.8608 270.131 64.6968 268.963C63.5327 267.795 62.0194 267.211 60.3897 267.211H59.1092V266.277H66.9085V273.284H66.7921ZM66.7921 327.474V334.598H58.9928V333.664H60.2733C62.0194 333.664 63.4163 333.08 64.5803 331.912C65.7444 330.744 66.4429 329.226 66.4429 327.591H66.7921V327.474ZM72.8453 266.043V334.481H66.5593V266.043H72.8453ZM85.3008 266.043C88.211 266.043 90.8884 266.51 93.2165 267.328C95.5447 268.145 97.64 269.43 99.2697 270.948C100.899 272.583 102.18 274.452 102.995 276.671C103.926 278.89 104.275 281.459 104.275 284.379C104.275 287.532 103.577 290.569 102.063 293.372C100.55 296.291 98.5713 298.627 96.1267 300.379C93.5658 302.131 90.772 303.065 87.7454 303.065C88.7931 303.532 90.0735 304.467 91.354 305.868C92.6345 307.269 93.7986 308.671 94.7298 309.956C96.4759 312.525 97.9892 314.744 99.3861 316.496C100.667 318.364 102.063 320.116 103.46 321.868C104.857 323.62 106.021 325.021 106.953 326.072C108.233 327.474 109.514 328.758 110.91 329.926C112.191 330.977 113.588 331.912 115.101 332.612C116.614 333.313 118.361 333.547 120.223 333.547V334.481H114.868C111.842 334.481 109.281 334.014 107.069 333.08C104.857 332.145 103.111 331.094 101.598 329.693C100.085 328.408 98.8041 327.123 97.7564 325.839C97.5236 325.605 97.058 324.788 96.1267 323.62C95.1955 322.335 94.2642 320.934 92.9837 319.182C91.8196 317.43 90.5392 315.795 89.3751 314.043C88.211 312.291 87.1634 310.89 86.3485 309.722C85.5337 308.554 85.068 307.853 84.8352 307.62C83.5547 305.985 82.2742 304.467 80.761 303.065C79.2477 301.664 77.618 300.963 75.8718 300.963V300.145C77.8508 300.262 79.5969 300.262 80.9938 300.145C82.7399 300.029 84.486 299.795 86.5813 299.328C88.5602 298.861 90.5392 297.926 92.2853 296.525C94.0314 295.123 95.4283 292.904 96.2431 289.985C96.4759 289.284 96.5923 288.35 96.7088 287.299C96.8252 286.248 96.8252 285.196 96.8252 284.145C96.7088 279.707 95.6611 276.204 93.4493 273.518C91.2376 270.831 88.3274 269.43 84.7188 269.313C82.8563 269.196 80.9938 269.08 79.1313 269.196C77.2687 269.196 74.9406 269.196 72.3796 269.196C72.3796 269.08 72.2632 268.846 72.1468 268.379C72.0304 267.912 71.7976 267.211 71.4484 266.16H85.3008V266.043ZM72.6124 327.474H72.9617C72.9617 329.226 73.5437 330.627 74.8242 331.795C76.1047 332.963 77.5016 333.547 79.2477 333.547H80.4117V334.481H72.7289V327.474H72.6124Z" fill="#1F4B98"/>
<path d="M159.1 264.759C166.085 264.759 172.138 266.277 177.376 269.197C182.615 272.117 186.805 276.321 189.716 281.693C192.626 287.066 194.139 293.255 194.139 300.379C194.139 307.504 192.626 313.693 189.716 319.066C186.805 324.438 182.615 328.525 177.376 331.562C172.138 334.482 165.968 336 159.1 336C152.232 336 146.179 334.482 140.825 331.562C135.586 328.642 131.396 324.438 128.485 319.066C125.575 313.693 124.062 307.504 124.062 300.379C124.062 293.255 125.575 287.066 128.485 281.693C131.396 276.321 135.586 272.233 140.825 269.197C146.063 266.16 152.116 264.759 159.1 264.759ZM159.1 332.963C164.572 332.963 169.461 331.562 173.535 328.876C177.609 326.19 180.869 322.336 183.197 317.43C185.525 312.525 186.689 306.803 186.689 300.263C186.689 293.722 185.525 288 183.197 283.095C180.869 278.19 177.726 274.336 173.535 271.649C169.461 268.963 164.572 267.562 159.1 267.562C153.629 267.562 148.857 268.963 144.666 271.649C140.592 274.336 137.332 278.19 135.004 283.095C132.676 288 131.512 293.722 131.512 300.263C131.512 306.803 132.676 312.525 135.004 317.43C137.332 322.336 140.475 326.19 144.666 328.876C148.857 331.679 153.629 332.963 159.1 332.963Z" fill="#1F4B98"/>
<path d="M39.6581 0L43.2667 2.33577L27.7846 12.2628L39.6581 0Z" fill="#1F4B98"/>
<path d="M123.831 122.394L127.44 124.729L111.958 134.656L123.831 122.394Z" fill="#1F4B98"/>
<path d="M166.197 245.489L169.806 247.825L154.324 257.752L166.197 245.489Z" fill="#1F4B98"/>
</g>
</svg>
