<svg width="371" height="569" viewBox="0 0 371 569" fill="none" xmlns="http://www.w3.org/2000/svg">
<path d="M34.922 50.8035H34.2672C34.2672 47.5188 33.1759 44.8911 30.775 42.7013C28.3741 40.5115 25.7549 39.4166 22.481 39.4166H20.2983L20.0801 37.6648H34.922V50.8035ZM34.922 152.409V165.767H20.2983V164.015H22.6992C25.9732 164.015 28.5924 162.92 30.775 160.73C32.9576 158.541 34.2672 155.694 34.2672 152.628H34.922V152.409ZM46.2717 37.4458V165.767H34.4855V37.4458H46.2717ZM95.8176 37.4458V43.1392H45.8352V37.4458H95.8176ZM87.9601 99.8546V105.329H45.8352V99.8546H87.9601ZM95.8176 160.293V165.986H45.8352V160.293H95.8176ZM106.949 136.205L96.2541 165.986H65.9155L72.4634 160.293C79.0113 160.293 84.2496 159.198 88.1784 157.227C92.3254 155.256 95.5993 152.409 98.2185 148.687C100.838 144.964 103.02 140.803 104.985 136.205H106.949ZM95.8176 34.1611V39.4166L73.5547 37.4458C76.1738 37.4458 79.0113 37.2268 82.067 36.7889C85.1227 36.3509 87.7418 35.913 90.361 35.475C92.7619 35.256 94.7263 34.5991 95.8176 34.1611ZM87.9601 88.0297V100.074H77.2652V99.6356C79.6661 99.4166 81.8487 98.5407 83.3765 96.7889C85.1227 95.037 85.9957 92.8473 85.9957 90.4385V87.8108H87.9601V88.0297ZM87.9601 105.11V117.154H86.214V114.307C86.214 111.898 85.3409 109.709 83.5948 107.957C81.8487 106.205 79.8843 105.329 77.4834 105.329V105.11H87.9601ZM95.8176 42.7013V57.3728H93.8532V54.0881C93.8532 51.2414 92.7619 48.6137 90.7975 46.4239C88.8331 44.2341 86.214 43.1392 83.1583 43.1392V42.7013H95.8176Z" fill="#1F4B98"/>
<path d="M143.18 50.803H142.526C142.307 47.5183 141.216 44.8906 139.033 42.7008C136.851 40.511 134.013 39.4161 130.958 39.4161H128.557V37.6643H143.18V50.803ZM143.18 152.409V165.766H128.557V164.015H130.958C134.231 164.015 136.851 162.92 139.033 160.73C141.216 158.54 142.526 155.693 142.526 152.628H143.18V152.409ZM154.53 37.4453V165.766H142.744V37.4453H154.53ZM154.093 50.803V37.4453H168.717V39.4161C168.499 39.4161 167.844 39.4161 166.316 39.4161C163.042 39.4161 160.423 40.511 158.24 42.7008C156.058 44.8906 154.748 47.7373 154.748 50.803H154.093ZM204.076 160.292V165.985H154.093V160.292H204.076ZM215.207 136.204L204.512 165.985H174.174L180.722 160.292C187.27 160.292 192.508 159.197 196.437 157.226C200.584 155.256 203.858 152.409 206.477 148.686C209.096 144.964 211.279 140.803 213.243 136.204H215.207Z" fill="#1F4B98"/>
<path d="M251.219 152.409C250.346 154.818 250.346 157.008 250.782 158.541C251.437 160.292 252.31 161.606 253.838 162.482C255.148 163.358 256.676 163.796 258.203 163.796H259.95V165.548H223.281V163.796H225.027C227.865 163.796 230.702 162.92 233.758 161.168C236.814 159.416 239.214 156.351 241.179 152.19H251.219V152.409ZM290.725 34.8179L292.471 47.7376L246.635 165.329H235.722L282.431 53.869C283.74 50.8033 284.832 48.1755 285.705 45.9858C286.578 43.796 287.451 41.6062 288.106 39.6354C288.76 37.6646 289.197 36.1317 289.197 35.0369H290.725V34.8179ZM316.48 115.84V121.314H259.295V115.84H316.48ZM290.725 34.8179L344.854 164.891H329.357L287.014 52.3361L290.725 34.8179ZM324.556 152.409H339.616C341.362 156.57 343.981 159.635 347.037 161.387C350.092 163.139 352.93 164.015 355.767 164.015H357.295V165.767H316.262V164.015H318.008C320.409 164.015 322.373 162.92 324.119 160.949C325.647 158.978 326.083 156.132 324.556 152.409Z" fill="#1F4B98"/>
<path d="M14.6237 245.606H14.1871C14.1871 242.321 13.0958 239.694 10.6949 237.504C8.29402 235.314 5.67486 234.219 2.4009 234.219H0.218264L0 232.248H14.6237V245.606ZM14.6237 347.212V360.569H0V358.818H2.4009C5.67486 358.818 8.29402 357.723 10.4767 355.533C12.6593 353.343 13.9689 350.496 13.9689 347.431H14.6237V347.212ZM25.9734 232.248V360.569H14.1871V232.248H25.9734ZM47.7997 232.248C55.6572 232.248 62.2051 233.562 67.88 236.409C73.5549 239.256 77.9201 243.197 80.7576 248.672C83.8132 253.927 85.3411 260.277 85.3411 267.723C85.3411 273.416 84.2498 278.453 82.0671 282.832C79.8845 287.212 77.0471 291.153 73.3366 294.219C69.6261 297.285 65.4791 299.475 60.8956 301.007C56.312 302.54 51.5102 303.197 46.4902 302.759C41.4701 302.321 36.6683 301.007 32.0848 298.599V296.847C36.2318 297.504 39.9422 297.723 43.2162 297.504C46.4902 297.285 49.7641 296.628 53.4746 295.533C56.9668 294.438 60.459 292.248 63.5147 289.402C66.5704 286.555 68.9713 282.394 70.4992 277.139C70.9357 275.825 71.154 274.073 71.3722 272.102C71.5905 270.131 71.5905 268.161 71.5905 266.19C71.3722 257.65 69.1896 250.861 65.0426 245.825C60.6773 240.788 54.7842 238.161 46.9267 238.161H25.3186C24.6638 236.409 24.009 234.438 23.5725 232.686H47.7997V232.248ZM25.3186 347.212H25.9734C26.1916 350.496 27.283 353.124 29.4656 355.314C31.6482 357.504 34.4857 358.599 37.5414 358.599H39.9422V360.35H25.3186V347.212Z" fill="#1F4B98"/>
<path d="M123.755 245.606H123.1C122.881 242.321 121.79 239.694 119.608 237.504C117.425 235.314 114.587 234.219 111.532 234.219H109.131V232.467H123.755V245.606ZM123.755 347.212V360.569H109.131V358.818H111.532C114.806 358.818 117.425 357.723 119.608 355.533C121.79 353.343 123.1 350.496 123.1 347.431H123.755V347.212ZM135.104 232.248V360.569H123.318V232.248H135.104ZM134.668 245.606V232.248H149.291V234C149.073 234 148.418 234 146.89 234C143.617 234 140.997 235.095 138.815 237.285C136.632 239.475 135.323 242.321 135.323 245.387H134.668V245.606ZM134.668 347.212H135.323C135.541 350.496 136.632 353.124 138.815 355.314C140.997 357.504 143.835 358.599 146.89 358.599C148.418 358.599 149.073 358.599 149.291 358.599V360.35H134.668V347.212Z" fill="#1F4B98"/>
<path d="M190.109 245.607H189.455C189.455 242.322 188.363 239.695 185.962 237.505C183.562 235.315 180.942 234.22 177.668 234.22H175.486L175.268 232.468H189.891V245.607H190.109ZM190.109 347.213V360.57H175.486V358.819H177.887C181.161 358.819 183.78 357.724 185.962 355.534C188.145 353.344 189.455 350.497 189.455 347.432H190.109V347.213ZM201.459 232.249V360.57H189.673V232.249H201.459ZM250.787 232.249V237.943H201.023V232.249H250.787ZM242.929 294.658V300.132H201.023V294.658H242.929ZM250.787 354.877V360.57H201.023V354.877H250.787ZM261.918 331.008L251.223 360.789H220.885L227.433 355.096C233.98 355.096 239.219 354.001 243.148 352.03C247.295 350.059 250.569 347.213 253.188 343.49C255.807 339.768 257.99 335.607 259.954 331.008H261.918ZM250.787 228.965V234.22L228.524 232.249C231.143 232.249 233.981 232.03 237.036 231.592C240.092 231.154 242.711 230.716 245.33 230.278C247.949 229.841 249.695 229.403 250.787 228.965ZM242.929 282.833V294.877H232.234V294.658C234.635 294.439 236.818 293.563 238.346 291.811C240.092 290.059 240.965 287.87 240.965 285.461V282.833H242.929ZM242.929 299.695V311.738H241.183V308.892C241.183 306.483 240.31 304.293 238.564 302.541C236.818 300.789 234.854 299.913 232.453 299.913V299.476H242.929V299.695ZM250.787 237.286V251.957H249.041V248.673C249.041 245.826 247.949 243.198 245.985 241.008C244.021 238.819 241.401 237.724 238.346 237.724V237.286H250.787Z" fill="#1F4B98"/>
<path d="M298.364 245.606H297.709C297.491 242.321 296.4 239.694 294.217 237.504C292.034 235.314 289.197 234.219 286.141 234.219H283.74V232.467H298.364V245.606ZM298.364 347.212V360.569H283.74V358.818H286.141C289.415 358.818 292.034 357.723 294.217 355.533C296.4 353.343 297.709 350.496 297.709 347.431H298.364V347.212ZM309.714 232.248V360.569H297.927V232.248H309.714ZM309.277 245.606V232.248H323.901V234C323.682 234 323.028 234 321.5 234C318.226 234 315.607 235.095 313.424 237.285C311.241 239.475 309.932 242.321 309.932 245.387H309.277V245.606ZM359.041 354.876V360.569H309.059V354.876H359.041ZM370.173 331.007L359.478 360.788H329.139L335.687 355.095C342.235 355.095 347.473 354 351.402 352.029C355.549 350.059 358.823 347.212 361.442 343.489C364.061 339.767 366.244 335.606 368.208 331.007H370.173Z" fill="#1F4B98"/>
<path d="M15.7174 451.409H15.2809C15.2809 448.124 14.1896 445.496 11.7887 443.306C9.38777 441.117 6.76861 440.022 3.49465 440.022H1.31201L1.09375 438.27H15.7174V451.409ZM15.7174 553.015V566.372H1.09375V564.62H3.49465C6.76861 564.62 9.38777 563.525 11.5704 561.336C13.753 559.146 15.0626 556.299 15.0626 553.233H15.7174V553.015ZM27.0671 437.832V566.153H15.2809V437.832H27.0671ZM48.8935 437.832C56.751 437.832 63.2989 439.146 68.9738 441.993C74.6486 444.839 79.0139 448.781 81.8513 454.255C84.907 459.511 86.4348 465.861 86.4348 473.306C86.4348 479 85.3435 484.036 83.1609 488.416C80.9782 492.796 78.1408 496.737 74.4303 499.803C70.7199 502.869 66.5729 505.058 61.9893 506.591C57.4058 508.124 52.604 508.781 47.5839 508.343C42.5638 507.905 37.762 506.591 33.1785 504.182V502.431C37.3255 503.087 41.036 503.306 44.31 503.088C47.5839 502.869 50.8579 502.212 54.5684 501.117C58.0606 500.022 61.5528 497.832 64.6085 494.985C67.6642 492.139 70.0651 487.978 71.5929 482.723C72.0294 481.409 72.2477 479.657 72.466 477.686C72.6842 475.715 72.6842 473.744 72.6842 471.774C72.466 463.233 70.2833 456.445 66.1363 451.409C61.771 446.372 55.8779 443.744 48.0204 443.744H26.4123C25.7575 441.993 25.1028 440.022 24.6662 438.27H48.8935V437.832ZM26.4123 553.015H27.0671C27.2854 556.299 28.3767 558.927 30.5593 561.117C32.742 563.307 35.5794 564.401 38.6351 564.401H41.036V566.153H26.4123V553.015Z" fill="#1F4B98"/>
<path d="M124.848 451.409H124.412C124.193 448.124 123.102 445.496 120.92 443.306C118.737 441.117 115.899 440.022 112.844 440.022H110.443V438.27H125.067V451.409H124.848ZM124.848 553.015V566.372H110.225V564.62H112.626C115.899 564.62 118.519 563.525 120.701 561.336C122.884 559.146 124.193 556.299 124.193 553.233H124.848V553.015ZM136.198 437.832V566.153H124.412V437.832H136.198ZM159.552 437.832C165.009 437.832 170.029 438.708 174.394 440.241C178.759 441.774 182.688 444.182 185.744 447.029C188.8 450.095 191.2 453.598 192.728 457.759C194.474 461.92 195.129 466.737 195.129 472.212C195.129 478.124 193.82 483.817 190.982 489.073C188.145 494.547 184.434 498.927 179.851 502.212C175.049 505.496 169.811 507.248 164.136 507.248C166.1 508.124 168.501 509.876 170.902 512.504C173.303 515.131 175.485 517.759 177.232 520.168C180.506 524.985 183.343 529.146 185.962 532.431C188.363 535.934 190.982 539.219 193.601 542.504C196.221 545.788 198.403 548.416 200.149 550.387C202.55 553.015 204.951 555.423 207.57 557.613C209.971 559.584 212.59 561.336 215.428 562.65C218.265 563.963 221.539 564.401 225.031 564.401V566.153H214.991C209.316 566.153 204.515 565.277 200.368 563.525C196.221 561.774 192.947 559.803 190.109 557.175C187.272 554.766 184.871 552.358 182.906 549.949C182.47 549.511 181.597 547.978 179.851 545.788C178.105 543.379 176.359 540.752 173.958 537.467C171.775 534.182 169.374 531.117 167.191 527.832C165.009 524.547 163.044 521.92 161.517 519.73C159.989 517.54 159.116 516.226 158.679 515.788C156.278 512.723 153.877 509.876 151.04 507.248C148.202 504.62 145.147 503.307 141.873 503.307V501.774C145.583 501.993 148.857 501.993 151.476 501.774C154.75 501.555 158.024 501.117 161.953 500.241C165.664 499.365 169.374 497.613 172.648 494.985C175.922 492.358 178.541 488.197 180.069 482.723C180.506 481.409 180.724 479.657 180.942 477.686C181.16 475.715 181.16 473.744 181.16 471.774C180.942 463.452 178.978 456.883 174.831 451.847C170.684 446.81 165.227 444.182 158.461 443.963C154.969 443.744 151.476 443.525 147.984 443.744C144.492 443.744 140.127 443.744 135.325 443.744C135.325 443.525 135.107 443.088 134.888 442.212C134.67 441.336 134.234 440.022 133.579 438.051H159.552V437.832ZM135.761 553.015H136.416C136.416 556.299 137.508 558.927 139.908 561.117C142.309 563.307 144.929 564.401 148.202 564.401H150.385V566.153H135.98V553.015H135.761Z" fill="#1F4B98"/>
<path d="M297.93 435.424C311.026 435.424 322.375 438.27 332.197 443.745C342.019 449.219 349.877 457.102 355.333 467.175C360.79 477.248 363.627 488.854 363.627 502.212C363.627 515.57 360.79 527.175 355.333 537.248C349.877 547.321 342.019 554.986 332.197 560.679C322.375 566.154 310.807 569 297.93 569C285.052 569 273.703 566.154 263.662 560.679C253.841 555.205 245.983 547.321 240.526 537.248C235.07 527.175 232.232 515.57 232.232 502.212C232.232 488.854 235.07 477.248 240.526 467.175C245.983 457.102 253.841 449.438 263.662 443.745C273.484 438.051 284.834 435.424 297.93 435.424ZM297.93 563.307C308.188 563.307 317.355 560.679 324.994 555.643C332.634 550.606 338.745 543.38 343.11 534.183C347.476 524.986 349.658 514.256 349.658 501.993C349.658 489.73 347.476 479 343.11 469.803C338.745 460.606 332.852 453.38 324.994 448.343C317.355 443.307 308.188 440.679 297.93 440.679C287.671 440.679 278.723 443.307 270.865 448.343C263.226 453.38 257.114 460.606 252.749 469.803C248.384 479 246.201 489.73 246.201 501.993C246.201 514.256 248.384 524.986 252.749 534.183C257.114 543.38 263.008 550.606 270.865 555.643C278.723 560.898 287.671 563.307 297.93 563.307Z" fill="#1F4B98"/>
<path d="M73.9836 0L80.7498 4.37956L51.7207 22.9927L73.9836 0Z" fill="#1F4B98"/>
<path d="M231.794 193.489L238.56 197.868L209.531 216.481L231.794 193.489Z" fill="#1F4B98"/>
<path d="M311.239 399.292L318.006 403.672L288.977 422.285L311.239 399.292Z" fill="#1F4B98"/>
</svg>
