<svg width="371" height="630" viewBox="0 0 371 630" fill="none" xmlns="http://www.w3.org/2000/svg">
<path d="M34.922 50.8032H34.2672C34.2672 47.5186 33.1759 44.8908 30.775 42.701C28.3741 40.5113 25.7549 39.4164 22.481 39.4164H20.2983L20.0801 37.6645H34.922V50.8032ZM34.922 152.409V165.767H20.2983V164.015H22.6992C25.9732 164.015 28.5924 162.92 30.775 160.73C32.9576 158.54 34.2672 155.694 34.2672 152.628H34.922V152.409ZM46.2717 37.4456V165.767H34.4855V37.4456H46.2717ZM95.8176 37.4456V43.139H45.8352V37.4456H95.8176ZM87.9601 99.8543V105.329H45.8352V99.8543H87.9601ZM95.8176 160.292V165.986H45.8352V160.292H95.8176ZM106.949 136.205L96.2541 165.986H65.9155L72.4634 160.292C79.0113 160.292 84.2496 159.197 88.1784 157.227C92.3254 155.256 95.5993 152.409 98.2185 148.686C100.838 144.964 103.02 140.803 104.985 136.205H106.949ZM95.8176 34.1609V39.4164L73.5547 37.4456C76.1738 37.4456 79.0113 37.2266 82.067 36.7886C85.1227 36.3507 87.7418 35.9127 90.361 35.4748C92.7619 35.2558 94.7263 34.5988 95.8176 34.1609ZM87.9601 88.0295V100.073H77.2652V99.6353C79.6661 99.4164 81.8487 98.5405 83.3765 96.7886C85.1227 95.0368 85.9957 92.847 85.9957 90.4383V87.8105H87.9601V88.0295ZM87.9601 105.11V117.154H86.214V114.307C86.214 111.898 85.3409 109.708 83.5948 107.956C81.8487 106.205 79.8843 105.329 77.4834 105.329V105.11H87.9601ZM95.8176 42.701V57.3726H93.8532V54.0879C93.8532 51.2412 92.7619 48.6134 90.7975 46.4237C88.8331 44.2339 86.214 43.139 83.1583 43.139V42.701H95.8176Z" fill="#1F4B98"/>
<path d="M143.18 50.8027H142.526C142.307 47.5181 141.216 44.8903 139.033 42.7005C136.851 40.5108 134.013 39.4159 130.958 39.4159H128.557V37.664H143.18V50.8027ZM143.18 152.409V165.766H128.557V164.014H130.958C134.231 164.014 136.851 162.92 139.033 160.73C141.216 158.54 142.526 155.693 142.526 152.628H143.18V152.409ZM154.53 37.4451V165.766H142.744V37.4451H154.53ZM154.093 50.8027V37.4451H168.717V39.4159C168.499 39.4159 167.844 39.4159 166.316 39.4159C163.042 39.4159 160.423 40.5108 158.24 42.7005C156.058 44.8903 154.748 47.737 154.748 50.8027H154.093ZM204.076 160.292V165.985H154.093V160.292H204.076ZM215.207 136.204L204.512 165.985H174.174L180.722 160.292C187.27 160.292 192.508 159.197 196.437 157.226C200.584 155.255 203.858 152.409 206.477 148.686C209.096 144.963 211.279 140.803 213.243 136.204H215.207Z" fill="#1F4B98"/>
<path d="M251.219 152.409C250.346 154.818 250.346 157.007 250.782 158.54C251.437 160.292 252.31 161.606 253.838 162.482C255.148 163.358 256.676 163.796 258.203 163.796H259.95V165.548H223.281V163.796H225.027C227.865 163.796 230.702 162.92 233.758 161.168C236.814 159.416 239.214 156.351 241.179 152.19H251.219V152.409ZM290.725 34.8176L292.471 47.7373L246.635 165.329H235.722L282.431 53.8687C283.74 50.803 284.832 48.1753 285.705 45.9855C286.578 43.7957 287.451 41.606 288.106 39.6351C288.76 37.6643 289.197 36.1315 289.197 35.0366H290.725V34.8176ZM316.48 115.84V121.314H259.295V115.84H316.48ZM290.725 34.8176L344.854 164.891H329.357L287.014 52.3359L290.725 34.8176ZM324.556 152.409H339.616C341.362 156.569 343.981 159.635 347.037 161.387C350.092 163.139 352.93 164.015 355.767 164.015H357.295V165.767H316.262V164.015H318.008C320.409 164.015 322.373 162.92 324.119 160.949C325.647 158.978 326.083 156.132 324.556 152.409Z" fill="#1F4B98"/>
<path d="M14.6237 281.606H14.1871C14.1871 278.321 13.0958 275.693 10.6949 273.504C8.29402 271.314 5.67486 270.219 2.4009 270.219H0.218264L0 268.248H14.6237V281.606ZM14.6237 383.212V396.569H0V394.817H2.4009C5.67486 394.817 8.29402 393.723 10.4767 391.533C12.6593 389.343 13.9689 386.496 13.9689 383.431H14.6237V383.212ZM25.9734 268.248V396.569H14.1871V268.248H25.9734ZM47.7997 268.248C55.6572 268.248 62.2051 269.562 67.88 272.409C73.5549 275.255 77.9201 279.197 80.7576 284.671C83.8132 289.927 85.3411 296.277 85.3411 303.722C85.3411 309.416 84.2498 314.452 82.0671 318.832C79.8845 323.212 77.0471 327.153 73.3366 330.219C69.6261 333.285 65.4791 335.474 60.8956 337.007C56.312 338.54 51.5102 339.197 46.4902 338.759C41.4701 338.321 36.6683 337.007 32.0848 334.598V332.847C36.2318 333.504 39.9422 333.723 43.2162 333.504C46.4902 333.285 49.7641 332.628 53.4746 331.533C56.9668 330.438 60.459 328.248 63.5147 325.401C66.5704 322.555 68.9713 318.394 70.4992 313.139C70.9357 311.825 71.154 310.073 71.3722 308.102C71.5905 306.131 71.5905 304.16 71.5905 302.19C71.3722 293.65 69.1896 286.861 65.0426 281.825C60.6773 276.788 54.7842 274.16 46.9267 274.16H25.3186C24.6638 272.409 24.009 270.438 23.5725 268.686H47.7997V268.248ZM25.3186 383.212H25.9734C26.1916 386.496 27.283 389.124 29.4656 391.314C31.6482 393.504 34.4857 394.598 37.5414 394.598H39.9422V396.35H25.3186V383.212Z" fill="#1F4B98"/>
<path d="M123.755 281.606H123.1C122.881 278.321 121.79 275.693 119.608 273.504C117.425 271.314 114.587 270.219 111.532 270.219H109.131V268.467H123.755V281.606ZM123.755 383.212V396.569H109.131V394.817H111.532C114.806 394.817 117.425 393.723 119.608 391.533C121.79 389.343 123.1 386.496 123.1 383.431H123.755V383.212ZM135.104 268.248V396.569H123.318V268.248H135.104ZM134.668 281.606V268.248H149.291V270C149.073 270 148.418 270 146.89 270C143.617 270 140.997 271.095 138.815 273.285C136.632 275.474 135.323 278.321 135.323 281.387H134.668V281.606ZM134.668 383.212H135.323C135.541 386.496 136.632 389.124 138.815 391.314C140.997 393.504 143.835 394.598 146.89 394.598C148.418 394.598 149.073 394.598 149.291 394.598V396.35H134.668V383.212Z" fill="#1F4B98"/>
<path d="M190.109 281.607H189.455C189.455 278.322 188.363 275.694 185.962 273.505C183.562 271.315 180.942 270.22 177.668 270.22H175.486L175.268 268.468H189.891V281.607H190.109ZM190.109 383.213V396.57H175.486V394.818H177.887C181.161 394.818 183.78 393.723 185.962 391.534C188.145 389.344 189.455 386.497 189.455 383.432H190.109V383.213ZM201.459 268.249V396.57H189.673V268.249H201.459ZM250.787 268.249V273.942H201.023V268.249H250.787ZM242.929 330.658V336.132H201.023V330.658H242.929ZM250.787 390.877V396.57H201.023V390.877H250.787ZM261.918 367.008L251.223 396.789H220.885L227.433 391.096C233.98 391.096 239.219 390.001 243.148 388.03C247.295 386.059 250.569 383.213 253.188 379.49C255.807 375.767 257.99 371.607 259.954 367.008H261.918ZM250.787 264.964V270.22L228.524 268.249C231.143 268.249 233.981 268.03 237.036 267.592C240.092 267.154 242.711 266.716 245.33 266.278C247.949 265.84 249.695 265.402 250.787 264.964ZM242.929 318.833V330.877H232.234V330.658C234.635 330.439 236.818 329.563 238.346 327.811C240.092 326.059 240.965 323.869 240.965 321.461V318.833H242.929ZM242.929 335.694V347.738H241.183V344.891C241.183 342.483 240.31 340.293 238.564 338.541C236.818 336.789 234.854 335.913 232.453 335.913V335.475H242.929V335.694ZM250.787 273.286V287.957H249.041V284.672C249.041 281.826 247.949 279.198 245.985 277.008C244.021 274.818 241.401 273.723 238.346 273.723V273.286H250.787Z" fill="#1F4B98"/>
<path d="M298.364 281.606H297.709C297.491 278.321 296.4 275.693 294.217 273.504C292.034 271.314 289.197 270.219 286.141 270.219H283.74V268.467H298.364V281.606ZM298.364 383.212V396.569H283.74V394.817H286.141C289.415 394.817 292.034 393.723 294.217 391.533C296.4 389.343 297.709 386.496 297.709 383.431H298.364V383.212ZM309.714 268.248V396.569H297.927V268.248H309.714ZM309.277 281.606V268.248H323.901V270C323.682 270 323.028 270 321.5 270C318.226 270 315.607 271.095 313.424 273.285C311.241 275.474 309.932 278.321 309.932 281.387H309.277V281.606ZM359.041 390.876V396.569H309.059V390.876H359.041ZM370.173 367.007L359.478 396.788H329.139L335.687 391.095C342.235 391.095 347.473 390 351.402 388.029C355.549 386.058 358.823 383.212 361.442 379.489C364.061 375.766 366.244 371.606 368.208 367.007H370.173Z" fill="#1F4B98"/>
<path d="M15.7174 512.409H15.2809C15.2809 509.124 14.1896 506.496 11.7887 504.306C9.38777 502.117 6.76861 501.022 3.49465 501.022H1.31201L1.09375 499.27H15.7174V512.409ZM15.7174 614.015V627.372H1.09375V625.62H3.49465C6.76861 625.62 9.38777 624.525 11.5704 622.336C13.753 620.146 15.0626 617.299 15.0626 614.233H15.7174V614.015ZM27.0671 498.832V627.153H15.2809V498.832H27.0671ZM48.8935 498.832C56.751 498.832 63.2989 500.146 68.9738 502.993C74.6486 505.839 79.0139 509.781 81.8513 515.255C84.907 520.511 86.4348 526.861 86.4348 534.306C86.4348 540 85.3435 545.036 83.1609 549.416C80.9782 553.796 78.1408 557.737 74.4303 560.803C70.7199 563.869 66.5729 566.058 61.9893 567.591C57.4058 569.124 52.604 569.781 47.5839 569.343C42.5638 568.905 37.762 567.591 33.1785 565.182V563.431C37.3255 564.087 41.036 564.306 44.31 564.088C47.5839 563.869 50.8579 563.212 54.5684 562.117C58.0606 561.022 61.5528 558.832 64.6085 555.985C67.6642 553.139 70.0651 548.978 71.5929 543.723C72.0294 542.409 72.2477 540.657 72.466 538.686C72.6842 536.715 72.6842 534.744 72.6842 532.774C72.466 524.233 70.2833 517.445 66.1363 512.409C61.771 507.372 55.8779 504.744 48.0204 504.744H26.4123C25.7575 502.993 25.1028 501.022 24.6662 499.27H48.8935V498.832ZM26.4123 614.015H27.0671C27.2854 617.299 28.3767 619.927 30.5593 622.117C32.742 624.307 35.5794 625.401 38.6351 625.401H41.036V627.153H26.4123V614.015Z" fill="#1F4B98"/>
<path d="M124.848 512.409H124.412C124.193 509.124 123.102 506.496 120.92 504.306C118.737 502.117 115.899 501.022 112.844 501.022H110.443V499.27H125.067V512.409H124.848ZM124.848 614.015V627.372H110.225V625.62H112.626C115.899 625.62 118.519 624.525 120.701 622.336C122.884 620.146 124.193 617.299 124.193 614.233H124.848V614.015ZM136.198 498.832V627.153H124.412V498.832H136.198ZM159.552 498.832C165.009 498.832 170.029 499.708 174.394 501.241C178.759 502.774 182.688 505.182 185.744 508.029C188.8 511.095 191.2 514.598 192.728 518.759C194.474 522.92 195.129 527.737 195.129 533.212C195.129 539.124 193.82 544.817 190.982 550.073C188.145 555.547 184.434 559.927 179.851 563.212C175.049 566.496 169.811 568.248 164.136 568.248C166.1 569.124 168.501 570.876 170.902 573.504C173.303 576.131 175.485 578.759 177.232 581.168C180.506 585.985 183.343 590.146 185.962 593.431C188.363 596.934 190.982 600.219 193.601 603.504C196.221 606.788 198.403 609.416 200.149 611.387C202.55 614.015 204.951 616.423 207.57 618.613C209.971 620.584 212.59 622.336 215.428 623.65C218.265 624.963 221.539 625.401 225.031 625.401V627.153H214.991C209.316 627.153 204.515 626.277 200.368 624.525C196.221 622.774 192.947 620.803 190.109 618.175C187.272 615.766 184.871 613.358 182.906 610.949C182.47 610.511 181.597 608.978 179.851 606.788C178.105 604.379 176.359 601.752 173.958 598.467C171.775 595.182 169.374 592.117 167.191 588.832C165.009 585.547 163.044 582.92 161.517 580.73C159.989 578.54 159.116 577.226 158.679 576.788C156.278 573.723 153.877 570.876 151.04 568.248C148.202 565.62 145.147 564.307 141.873 564.307V562.774C145.583 562.993 148.857 562.993 151.476 562.774C154.75 562.555 158.024 562.117 161.953 561.241C165.664 560.365 169.374 558.613 172.648 555.985C175.922 553.358 178.541 549.197 180.069 543.723C180.506 542.409 180.724 540.657 180.942 538.686C181.16 536.715 181.16 534.744 181.16 532.774C180.942 524.452 178.978 517.883 174.831 512.847C170.684 507.81 165.227 505.182 158.461 504.963C154.969 504.744 151.476 504.525 147.984 504.744C144.492 504.744 140.127 504.744 135.325 504.744C135.325 504.525 135.107 504.088 134.888 503.212C134.67 502.336 134.234 501.022 133.579 499.051H159.552V498.832ZM135.761 614.015H136.416C136.416 617.299 137.508 619.927 139.908 622.117C142.309 624.307 144.929 625.401 148.202 625.401H150.385V627.153H135.98V614.015H135.761Z" fill="#1F4B98"/>
<path d="M297.93 496.423C311.026 496.423 322.375 499.27 332.197 504.745C342.019 510.219 349.877 518.102 355.333 528.175C360.79 538.248 363.627 549.854 363.627 563.212C363.627 576.569 360.79 588.175 355.333 598.248C349.877 608.321 342.019 615.985 332.197 621.679C322.375 627.153 310.807 630 297.93 630C285.052 630 273.703 627.153 263.662 621.679C253.841 616.204 245.983 608.321 240.526 598.248C235.07 588.175 232.232 576.569 232.232 563.212C232.232 549.854 235.07 538.248 240.526 528.175C245.983 518.102 253.841 510.438 263.662 504.745C273.484 499.051 284.834 496.423 297.93 496.423ZM297.93 624.307C308.188 624.307 317.355 621.679 324.994 616.642C332.634 611.606 338.745 604.38 343.11 595.182C347.476 585.985 349.658 575.255 349.658 562.993C349.658 550.73 347.476 540 343.11 530.803C338.745 521.606 332.852 514.38 324.994 509.343C317.355 504.307 308.188 501.679 297.93 501.679C287.671 501.679 278.723 504.307 270.865 509.343C263.226 514.38 257.114 521.606 252.749 530.803C248.384 540 246.201 550.73 246.201 562.993C246.201 575.255 248.384 585.985 252.749 595.182C257.114 604.38 263.008 611.606 270.865 616.642C278.723 621.898 287.671 624.307 297.93 624.307Z" fill="#1F4B98"/>
<path d="M73.9836 0L80.7498 4.37956L51.7207 22.9927L73.9836 0Z" fill="#1F4B98"/>
<path d="M231.794 229.489L238.56 233.868L209.531 252.481L231.794 229.489Z" fill="#1F4B98"/>
<path d="M311.239 460.292L318.006 464.672L288.977 483.285L311.239 460.292Z" fill="#1F4B98"/>
</svg>
