<?xml version="1.0" standalone="no"?>
<!DOCTYPE svg PUBLIC "-//W3C//DTD SVG 20010904//EN"
 "http://www.w3.org/TR/2001/REC-SVG-20010904/DTD/svg10.dtd">
<svg version="1.0" xmlns="http://www.w3.org/2000/svg"
 width="88.000000pt" height="88.000000pt" viewBox="0 0 88.000000 88.000000"
 preserveAspectRatio="xMidYMid meet">
<metadata>
Created by potrace 1.14, written by Peter Selinger 2001-2017
</metadata>
<g transform="translate(0.000000,88.000000) scale(0.100000,-0.100000)"
fill="#000000" stroke="none">
<path d="M329 856 c-190 -55 -320 -224 -320 -416 -1 -298 279 -506 563 -420
194 60 321 245 306 447 -13 168 -121 313 -278 374 -69 27 -205 34 -271 15z
m258 -34 c107 -41 191 -121 240 -229 23 -50 27 -72 27 -159 1 -96 0 -103 -37
-176 -78 -158 -232 -247 -405 -235 -177 13 -335 150 -372 322 -48 220 83 431
303 489 68 18 179 13 244 -12z"/>
<path d="M419 678 c-16 -39 -14 -74 7 -106 l17 -25 18 24 c23 29 24 87 3 117
-21 30 -29 28 -45 -10z"/>
<path d="M200 659 c0 -71 102 -189 164 -189 21 0 3 51 -27 77 -22 18 -22 18
-6 -2 9 -11 20 -30 24 -43 7 -23 6 -23 -22 -9 -40 22 -89 76 -107 119 -20 47
-20 48 4 48 62 0 152 -82 173 -157 6 -24 14 -43 19 -43 14 0 -19 88 -47 124
-32 42 -94 81 -142 90 -28 5 -33 3 -33 -15z"/>
<path d="M610 659 c-88 -40 -138 -111 -147 -210 -11 -120 71 -227 195 -254 27
-5 32 -4 32 12 0 32 -46 118 -77 144 -34 28 -91 55 -99 46 -9 -8 25 -73 49
-94 15 -13 14 -9 -6 18 -46 61 -31 78 29 33 37 -29 71 -78 84 -122 l8 -29 -39
10 c-56 14 -133 86 -152 141 -38 111 12 234 115 287 51 26 71 25 62 -3 -20
-66 -93 -158 -124 -158 -15 0 -12 23 7 50 14 21 15 23 1 12 -18 -14 -43 -70
-36 -78 9 -9 63 17 92 44 51 48 97 172 64 172 -7 0 -33 -10 -58 -21z"/>
<path d="M189 451 c-24 -20 -24 -20 -4 -35 38 -29 135 -13 135 23 0 14 -42 31
-80 31 -15 0 -38 -9 -51 -19z"/>
<path d="M581 451 l-24 -18 24 -17 c31 -21 91 -21 119 2 l23 19 -24 16 c-31
22 -88 21 -118 -2z"/>
<path d="M407 400 c-9 -73 -53 -137 -119 -171 -53 -27 -68 -25 -62 8 3 15 14
42 25 60 22 35 84 93 100 93 13 0 2 -39 -20 -65 -16 -20 -16 -20 5 -2 23 19
48 87 33 87 -20 0 -65 -29 -96 -62 -36 -37 -63 -94 -63 -133 0 -23 3 -25 28
-19 67 16 134 73 162 139 22 50 34 115 22 115 -5 0 -12 -22 -15 -50z"/>
<path d="M426 298 c-19 -27 -21 -77 -4 -113 14 -31 22 -31 42 -3 20 28 20 71
1 108 -19 36 -20 36 -39 8z"/>
</g>
</svg>
